<svg xmlns="http://www.w3.org/2000/svg" xmlns:xlink="http://www.w3.org/1999/xlink" contentStyleType="text/css" data-diagram-type="CLASS" height="693px" preserveAspectRatio="none" style="width:722px;height:693px;background:#FFFFFF;" version="1.1" viewBox="0 0 722 693" width="722px" zoomAndPan="magnify"><defs/><g><!--cluster App--><g class="cluster" data-entity="App" data-source-line="15" data-uid="ent0004" id="cluster_App"><path d="M289.5,206 L321.3779,206 A3.75,3.75 0 0 1 323.8779,208.5 L330.8779,228.2969 L712.5,228.2969 A2.5,2.5 0 0 1 715,230.7969 L715,565.5 A2.5,2.5 0 0 1 712.5,568 L289.5,568 A2.5,2.5 0 0 1 287,565.5 L287,208.5 A2.5,2.5 0 0 1 289.5,206" fill="none" style="stroke:#000000;stroke-width:1.5;"/><line style="stroke:#000000;stroke-width:1.5;" x1="287" x2="330.8779" y1="228.2969" y2="228.2969"/><text fill="#000000" font-family="sans-serif" font-size="14" font-weight="bold" lengthAdjust="spacing" textLength="30.8779" x="291" y="220.9951">App</text></g><!--cluster Api--><g class="cluster" data-entity="Api" data-source-line="14" data-uid="ent0002" id="cluster_Api"><path d="M297.5,233 L324.1553,233 A3.75,3.75 0 0 1 326.6553,235.5 L333.6553,255.2969 L493.5,255.2969 A2.5,2.5 0 0 1 496,257.7969 L496,297.5 A2.5,2.5 0 0 1 493.5,300 L297.5,300 A2.5,2.5 0 0 1 295,297.5 L295,235.5 A2.5,2.5 0 0 1 297.5,233" fill="none" style="stroke:#000000;stroke-width:1.5;"/><line style="stroke:#000000;stroke-width:1.5;" x1="295" x2="333.6553" y1="255.2969" y2="255.2969"/><text fill="#000000" font-family="sans-serif" font-size="14" font-weight="bold" lengthAdjust="spacing" textLength="25.6553" x="299" y="247.9951">Api</text></g><!--cluster Http--><g class="cluster" data-entity="Http" data-source-line="19" data-uid="ent0007" id="cluster_Http"><path d="M331.5,308 L367.623,308 A3.75,3.75 0 0 1 370.123,310.5 L377.123,330.2969 L459.5,330.2969 A2.5,2.5 0 0 1 462,332.7969 L462,407.5 A2.5,2.5 0 0 1 459.5,410 L331.5,410 A2.5,2.5 0 0 1 329,407.5 L329,310.5 A2.5,2.5 0 0 1 331.5,308" fill="none" style="stroke:#000000;stroke-width:1.5;"/><line style="stroke:#000000;stroke-width:1.5;" x1="329" x2="377.123" y1="330.2969" y2="330.2969"/><text fill="#000000" font-family="sans-serif" font-size="14" font-weight="bold" lengthAdjust="spacing" textLength="35.123" x="333" y="322.9951">Http</text></g><!--cluster Controllers--><g class="cluster" data-entity="Controllers" data-source-line="18" data-uid="ent0005" id="cluster_Controllers"><path d="M339.5,335 L427.9043,335 A3.75,3.75 0 0 1 430.4043,337.5 L437.4043,357.2969 L451.5,357.2969 A2.5,2.5 0 0 1 454,359.7969 L454,399.5 A2.5,2.5 0 0 1 451.5,402 L339.5,402 A2.5,2.5 0 0 1 337,399.5 L337,337.5 A2.5,2.5 0 0 1 339.5,335" fill="none" style="stroke:#000000;stroke-width:1.5;"/><line style="stroke:#000000;stroke-width:1.5;" x1="337" x2="437.4043" y1="357.2969" y2="357.2969"/><text fill="#000000" font-family="sans-serif" font-size="14" font-weight="bold" lengthAdjust="spacing" textLength="87.4043" x="341" y="349.9951">Controllers</text></g><!--cluster Models--><g class="cluster" data-entity="Models" data-source-line="26" data-uid="ent0015" id="cluster_Models"><path d="M358,418 L415.1982,418 A3.75,3.75 0 0 1 417.6982,420.5 L424.6982,440.2969 L433,440.2969 A2.5,2.5 0 0 1 435.5,442.7969 L435.5,482.5 A2.5,2.5 0 0 1 433,485 L358,485 A2.5,2.5 0 0 1 355.5,482.5 L355.5,420.5 A2.5,2.5 0 0 1 358,418" fill="none" style="stroke:#000000;stroke-width:1.5;"/><line style="stroke:#000000;stroke-width:1.5;" x1="355.5" x2="424.6982" y1="440.2969" y2="440.2969"/><text fill="#000000" font-family="sans-serif" font-size="14" font-weight="bold" lengthAdjust="spacing" textLength="56.1982" x="359.5" y="432.9951">Models</text></g><!--cluster Providers--><g class="cluster" data-entity="Providers" data-source-line="37" data-uid="ent0029" id="cluster_Providers"><path d="M305.5,493 L381.9619,493 A3.75,3.75 0 0 1 384.4619,495.5 L391.4619,515.2969 L485.5,515.2969 A2.5,2.5 0 0 1 488,517.7969 L488,557.5 A2.5,2.5 0 0 1 485.5,560 L305.5,560 A2.5,2.5 0 0 1 303,557.5 L303,495.5 A2.5,2.5 0 0 1 305.5,493" fill="none" style="stroke:#000000;stroke-width:1.5;"/><line style="stroke:#000000;stroke-width:1.5;" x1="303" x2="391.4619" y1="515.2969" y2="515.2969"/><text fill="#000000" font-family="sans-serif" font-size="14" font-weight="bold" lengthAdjust="spacing" textLength="75.4619" x="307" y="507.9951">Providers</text></g><!--cluster Services--><g class="cluster" data-entity="Services" data-source-line="41" data-uid="ent0032" id="cluster_Services"><path d="M519.5,233 L587.0342,233 A3.75,3.75 0 0 1 589.5342,235.5 L596.5342,255.2969 L704.5,255.2969 A2.5,2.5 0 0 1 707,257.7969 L707,297.5 A2.5,2.5 0 0 1 704.5,300 L519.5,300 A2.5,2.5 0 0 1 517,297.5 L517,235.5 A2.5,2.5 0 0 1 519.5,233" fill="none" style="stroke:#000000;stroke-width:1.5;"/><line style="stroke:#000000;stroke-width:1.5;" x1="517" x2="596.5342" y1="255.2969" y2="255.2969"/><text fill="#000000" font-family="sans-serif" font-size="14" font-weight="bold" lengthAdjust="spacing" textLength="66.5342" x="521" y="247.9951">Services</text></g><!--cluster Illuminate--><g class="cluster" data-entity="Illuminate" data-source-line="23" data-uid="ent0010" id="cluster_Illuminate"><path d="M16.5,22 L97.2617,22 A3.75,3.75 0 0 1 99.7617,24.5 L106.7617,44.2969 L235.5,44.2969 A2.5,2.5 0 0 1 238,46.7969 L238,573.5 A2.5,2.5 0 0 1 235.5,576 L16.5,576 A2.5,2.5 0 0 1 14,573.5 L14,24.5 A2.5,2.5 0 0 1 16.5,22" fill="none" style="stroke:#000000;stroke-width:1.5;"/><line style="stroke:#000000;stroke-width:1.5;" x1="14" x2="106.7617" y1="44.2969" y2="44.2969"/><text fill="#000000" font-family="sans-serif" font-size="14" font-weight="bold" lengthAdjust="spacing" textLength="79.7617" x="18" y="36.9951">Illuminate</text></g><!--cluster Foundation--><g class="cluster" data-entity="Foundation" data-source-line="23" data-uid="ent0011" id="cluster_Foundation"><path d="M66.5,300 L157.1602,300 A3.75,3.75 0 0 1 159.6602,302.5 L166.6602,322.2969 L185.5,322.2969 A2.5,2.5 0 0 1 188,324.7969 L188,407.5 A2.5,2.5 0 0 1 185.5,410 L66.5,410 A2.5,2.5 0 0 1 64,407.5 L64,302.5 A2.5,2.5 0 0 1 66.5,300" fill="none" style="stroke:#000000;stroke-width:1.5;"/><line style="stroke:#000000;stroke-width:1.5;" x1="64" x2="166.6602" y1="322.2969" y2="322.2969"/><text fill="#000000" font-family="sans-serif" font-size="14" font-weight="bold" lengthAdjust="spacing" textLength="89.6602" x="68" y="314.9951">Foundation</text></g><!--cluster Auth--><g class="cluster" data-entity="Auth" data-source-line="22" data-uid="ent0008" id="cluster_Auth"><path d="M74.5,327 L112.9609,327 A3.75,3.75 0 0 1 115.4609,329.5 L122.4609,349.2969 L177.5,349.2969 A2.5,2.5 0 0 1 180,351.7969 L180,399.5 A2.5,2.5 0 0 1 177.5,402 L74.5,402 A2.5,2.5 0 0 1 72,399.5 L72,329.5 A2.5,2.5 0 0 1 74.5,327" fill="none" style="stroke:#000000;stroke-width:1.5;"/><line style="stroke:#000000;stroke-width:1.5;" x1="72" x2="122.4609" y1="349.2969" y2="349.2969"/><text fill="#000000" font-family="sans-serif" font-size="14" font-weight="bold" lengthAdjust="spacing" textLength="37.4609" x="76" y="341.9951">Auth</text></g><!--cluster Database--><g class="cluster" data-entity="Database" data-source-line="27" data-uid="ent0019" id="cluster_Database"><path d="M24.5,49 L100.0049,49 A3.75,3.75 0 0 1 102.5049,51.5 L109.5049,71.2969 L227.5,71.2969 A2.5,2.5 0 0 1 230,73.7969 L230,289.5 A2.5,2.5 0 0 1 227.5,292 L24.5,292 A2.5,2.5 0 0 1 22,289.5 L22,51.5 A2.5,2.5 0 0 1 24.5,49" fill="none" style="stroke:#000000;stroke-width:1.5;"/><line style="stroke:#000000;stroke-width:1.5;" x1="22" x2="109.5049" y1="71.2969" y2="71.2969"/><text fill="#000000" font-family="sans-serif" font-size="14" font-weight="bold" lengthAdjust="spacing" textLength="74.5049" x="26" y="63.9951">Database</text></g><!--cluster Eloquent--><g class="cluster" data-entity="Eloquent" data-source-line="27" data-uid="ent0020" id="cluster_Eloquent"><path d="M32.5,124 L103.623,124 A3.75,3.75 0 0 1 106.123,126.5 L113.123,146.2969 L219.5,146.2969 A2.5,2.5 0 0 1 222,148.7969 L222,281.5 A2.5,2.5 0 0 1 219.5,284 L32.5,284 A2.5,2.5 0 0 1 30,281.5 L30,126.5 A2.5,2.5 0 0 1 32.5,124" fill="none" style="stroke:#000000;stroke-width:1.5;"/><line style="stroke:#000000;stroke-width:1.5;" x1="30" x2="113.123" y1="146.2969" y2="146.2969"/><text fill="#000000" font-family="sans-serif" font-size="14" font-weight="bold" lengthAdjust="spacing" textLength="70.123" x="34" y="138.9951">Eloquent</text></g><!--cluster Factories--><g class="cluster" data-entity="Factories" data-source-line="27" data-uid="ent0021" id="cluster_Factories"><path d="M40.5,151 L114.6514,151 A3.75,3.75 0 0 1 117.1514,153.5 L124.1514,173.2969 L211.5,173.2969 A2.5,2.5 0 0 1 214,175.7969 L214,273.5 A2.5,2.5 0 0 1 211.5,276 L40.5,276 A2.5,2.5 0 0 1 38,273.5 L38,153.5 A2.5,2.5 0 0 1 40.5,151" fill="none" style="stroke:#000000;stroke-width:1.5;"/><line style="stroke:#000000;stroke-width:1.5;" x1="38" x2="124.1514" y1="173.2969" y2="173.2969"/><text fill="#000000" font-family="sans-serif" font-size="14" font-weight="bold" lengthAdjust="spacing" textLength="73.1514" x="42" y="165.9951">Factories</text></g><!--cluster Notifications--><g class="cluster" data-entity="Notifications" data-source-line="28" data-uid="ent0024" id="cluster_Notifications"><path d="M46.5,418 L148.3711,418 A3.75,3.75 0 0 1 150.8711,420.5 L157.8711,440.2969 L205.5,440.2969 A2.5,2.5 0 0 1 208,442.7969 L208,482.5 A2.5,2.5 0 0 1 205.5,485 L46.5,485 A2.5,2.5 0 0 1 44,482.5 L44,420.5 A2.5,2.5 0 0 1 46.5,418" fill="none" style="stroke:#000000;stroke-width:1.5;"/><line style="stroke:#000000;stroke-width:1.5;" x1="44" x2="157.8711" y1="440.2969" y2="440.2969"/><text fill="#000000" font-family="sans-serif" font-size="14" font-weight="bold" lengthAdjust="spacing" textLength="100.8711" x="48" y="432.9951">Notifications</text></g><!--cluster Support--><g class="cluster" data-entity="Support" data-source-line="33" data-uid="ent0027" id="cluster_Support"><path d="M49.5,493 L113.8076,493 A3.75,3.75 0 0 1 116.3076,495.5 L123.3076,515.2969 L202.5,515.2969 A2.5,2.5 0 0 1 205,517.7969 L205,565.5 A2.5,2.5 0 0 1 202.5,568 L49.5,568 A2.5,2.5 0 0 1 47,565.5 L47,495.5 A2.5,2.5 0 0 1 49.5,493" fill="none" style="stroke:#000000;stroke-width:1.5;"/><line style="stroke:#000000;stroke-width:1.5;" x1="47" x2="123.3076" y1="515.2969" y2="515.2969"/><text fill="#000000" font-family="sans-serif" font-size="14" font-weight="bold" lengthAdjust="spacing" textLength="63.3076" x="51" y="507.9951">Support</text></g><!--cluster Laravel--><g class="cluster" data-entity="Laravel" data-source-line="26" data-uid="ent0013" id="cluster_Laravel"><path d="M22.5,584 L81.6396,584 A3.75,3.75 0 0 1 84.1396,586.5 L91.1396,606.2969 L229.5,606.2969 A2.5,2.5 0 0 1 232,608.7969 L232,683.5 A2.5,2.5 0 0 1 229.5,686 L22.5,686 A2.5,2.5 0 0 1 20,683.5 L20,586.5 A2.5,2.5 0 0 1 22.5,584" fill="none" style="stroke:#000000;stroke-width:1.5;"/><line style="stroke:#000000;stroke-width:1.5;" x1="20" x2="91.1396" y1="606.2969" y2="606.2969"/><text fill="#000000" font-family="sans-serif" font-size="14" font-weight="bold" lengthAdjust="spacing" textLength="58.1396" x="24" y="598.9951">Laravel</text></g><!--cluster Sanctum--><g class="cluster" data-entity="Sanctum" data-source-line="26" data-uid="ent0014" id="cluster_Sanctum"><path d="M30.5,611 L100.543,611 A3.75,3.75 0 0 1 103.043,613.5 L110.043,633.2969 L221.5,633.2969 A2.5,2.5 0 0 1 224,635.7969 L224,675.5 A2.5,2.5 0 0 1 221.5,678 L30.5,678 A2.5,2.5 0 0 1 28,675.5 L28,613.5 A2.5,2.5 0 0 1 30.5,611" fill="none" style="stroke:#000000;stroke-width:1.5;"/><line style="stroke:#000000;stroke-width:1.5;" x1="28" x2="110.043" y1="633.2969" y2="633.2969"/><text fill="#000000" font-family="sans-serif" font-size="14" font-weight="bold" lengthAdjust="spacing" textLength="69.043" x="32" y="625.9951">Sanctum</text></g><!--cluster Database--><g class="cluster" data-entity="Database" data-source-line="50" data-uid="ent0038" id="cluster_Database"><path d="M308,4 L383.5049,4 A3.75,3.75 0 0 1 386.0049,6.5 L393.0049,26.2969 L483,26.2969 A2.5,2.5 0 0 1 485.5,28.7969 L485.5,178.5 A2.5,2.5 0 0 1 483,181 L308,181 A2.5,2.5 0 0 1 305.5,178.5 L305.5,6.5 A2.5,2.5 0 0 1 308,4" fill="none" style="stroke:#000000;stroke-width:1.5;"/><line style="stroke:#000000;stroke-width:1.5;" x1="305.5" x2="393.0049" y1="26.2969" y2="26.2969"/><text fill="#000000" font-family="sans-serif" font-size="14" font-weight="bold" lengthAdjust="spacing" textLength="74.5049" x="309.5" y="18.9951">Database</text></g><!--cluster Factories--><g class="cluster" data-entity="Factories" data-source-line="49" data-uid="ent0036" id="cluster_Factories"><path d="M332,31 L406.1514,31 A3.75,3.75 0 0 1 408.6514,33.5 L415.6514,53.2969 L459,53.2969 A2.5,2.5 0 0 1 461.5,55.7969 L461.5,95.5 A2.5,2.5 0 0 1 459,98 L332,98 A2.5,2.5 0 0 1 329.5,95.5 L329.5,33.5 A2.5,2.5 0 0 1 332,31" fill="none" style="stroke:#000000;stroke-width:1.5;"/><line style="stroke:#000000;stroke-width:1.5;" x1="329.5" x2="415.6514" y1="53.2969" y2="53.2969"/><text fill="#000000" font-family="sans-serif" font-size="14" font-weight="bold" lengthAdjust="spacing" textLength="73.1514" x="333.5" y="45.9951">Factories</text></g><!--cluster Seeders--><g class="cluster" data-entity="Seeders" data-source-line="57" data-uid="ent0041" id="cluster_Seeders"><path d="M316,106 L380.8271,106 A3.75,3.75 0 0 1 383.3271,108.5 L390.3271,128.2969 L475,128.2969 A2.5,2.5 0 0 1 477.5,130.7969 L477.5,170.5 A2.5,2.5 0 0 1 475,173 L316,173 A2.5,2.5 0 0 1 313.5,170.5 L313.5,108.5 A2.5,2.5 0 0 1 316,106" fill="none" style="stroke:#000000;stroke-width:1.5;"/><line style="stroke:#000000;stroke-width:1.5;" x1="313.5" x2="390.3271" y1="128.2969" y2="128.2969"/><text fill="#000000" font-family="sans-serif" font-size="14" font-weight="bold" lengthAdjust="spacing" textLength="63.8271" x="317.5" y="120.9951">Seeders</text></g><!--class ApiResponseInterface__interface--><g class="entity" data-entity="ApiResponseInterface__interface" data-source-line="15" data-uid="ent0003" id="entity_ApiResponseInterface__interface"><rect fill="#F1F1F1" height="32" rx="2.5" ry="2.5" style="stroke:#181818;stroke-width:0.5;" width="184.8994" x="303" y="260"/><ellipse cx="318" cy="276" fill="#B4A7E5" rx="11" ry="11" style="stroke:#181818;stroke-width:1;"/><path d="M313.9219,271.7656 L313.9219,269.6094 L321.3125,269.6094 L321.3125,271.7656 L318.8438,271.7656 L318.8438,279.8438 L321.3125,279.8438 L321.3125,282 L313.9219,282 L313.9219,279.8438 L316.3906,279.8438 L316.3906,271.7656 L313.9219,271.7656 Z " fill="#000000"/><text fill="#000000" font-family="sans-serif" font-size="14" font-style="italic" lengthAdjust="spacing" textLength="152.8994" x="332" y="280.8467">ApiResponseInterface</text></g><!--class Controller__class--><g class="entity" data-entity="Controller__class" data-source-line="19" data-uid="ent0006" id="entity_Controller__class"><rect fill="#F1F1F1" height="32" rx="2.5" ry="2.5" style="stroke:#181818;stroke-width:0.5;" width="101.1729" x="345" y="362"/><ellipse cx="360" cy="378" fill="#A9DCDF" rx="11" ry="11" style="stroke:#181818;stroke-width:1;"/><path d="M360.1094,373.3438 L358.9531,378.4219 L361.2813,378.4219 L360.1094,373.3438 Z M358.625,371.1094 L361.6094,371.1094 L364.9688,383.5 L362.5156,383.5 L361.75,380.4375 L358.4688,380.4375 L357.7188,383.5 L355.2813,383.5 L358.625,371.1094 Z " fill="#000000"/><text fill="#000000" font-family="sans-serif" font-size="14" font-style="italic" lengthAdjust="spacing" textLength="69.1729" x="374" y="382.8467">Controller</text></g><!--class User__class--><g class="entity" data-entity="User__class" data-source-line="26" data-uid="ent0016" id="entity_User__class"><rect fill="#F1F1F1" height="32" rx="2.5" ry="2.5" style="stroke:#181818;stroke-width:0.5;" width="63.9102" x="363.5" y="445"/><ellipse cx="378.5" cy="461" fill="#ADD1B2" rx="11" ry="11" style="stroke:#181818;stroke-width:1;"/><path d="M381.4688,466.6406 Q380.8906,466.9375 380.25,467.0781 Q379.6094,467.2344 378.9063,467.2344 Q376.4063,467.2344 375.0781,465.5938 Q373.7656,463.9375 373.7656,460.8125 Q373.7656,457.6875 375.0781,456.0313 Q376.4063,454.375 378.9063,454.375 Q379.6094,454.375 380.25,454.5313 Q380.9063,454.6875 381.4688,454.9844 L381.4688,457.7031 Q380.8438,457.125 380.25,456.8594 Q379.6563,456.5781 379.0313,456.5781 Q377.6875,456.5781 377,457.6563 Q376.3125,458.7188 376.3125,460.8125 Q376.3125,462.9063 377,463.9844 Q377.6875,465.0469 379.0313,465.0469 Q379.6563,465.0469 380.25,464.7813 Q380.8438,464.5 381.4688,463.9219 L381.4688,466.6406 Z " fill="#000000"/><text fill="#000000" font-family="sans-serif" font-size="14" lengthAdjust="spacing" textLength="31.9102" x="392.5" y="465.8467">User</text></g><!--class AppServiceProvider__class--><g class="entity" data-entity="AppServiceProvider__class" data-source-line="38" data-uid="ent0030" id="entity_AppServiceProvider__class"><rect fill="#F1F1F1" height="32" rx="2.5" ry="2.5" style="stroke:#181818;stroke-width:0.5;" width="169.2861" x="311" y="520"/><ellipse cx="326" cy="536" fill="#ADD1B2" rx="11" ry="11" style="stroke:#181818;stroke-width:1;"/><path d="M328.9688,541.6406 Q328.3906,541.9375 327.75,542.0781 Q327.1094,542.2344 326.4063,542.2344 Q323.9063,542.2344 322.5781,540.5938 Q321.2656,538.9375 321.2656,535.8125 Q321.2656,532.6875 322.5781,531.0313 Q323.9063,529.375 326.4063,529.375 Q327.1094,529.375 327.75,529.5313 Q328.4063,529.6875 328.9688,529.9844 L328.9688,532.7031 Q328.3438,532.125 327.75,531.8594 Q327.1563,531.5781 326.5313,531.5781 Q325.1875,531.5781 324.5,532.6563 Q323.8125,533.7188 323.8125,535.8125 Q323.8125,537.9063 324.5,538.9844 Q325.1875,540.0469 326.5313,540.0469 Q327.1563,540.0469 327.75,539.7813 Q328.3438,539.5 328.9688,538.9219 L328.9688,541.6406 Z " fill="#000000"/><text fill="#000000" font-family="sans-serif" font-size="14" lengthAdjust="spacing" textLength="137.2861" x="340" y="540.8467">AppServiceProvider</text></g><!--class ApiResponseService__class--><g class="entity" data-entity="ApiResponseService__class" data-source-line="42" data-uid="ent0033" id="entity_ApiResponseService__class"><rect fill="#F1F1F1" height="32" rx="2.5" ry="2.5" style="stroke:#181818;stroke-width:0.5;" width="173.9619" x="525" y="260"/><ellipse cx="540" cy="276" fill="#ADD1B2" rx="11" ry="11" style="stroke:#181818;stroke-width:1;"/><path d="M542.9688,281.6406 Q542.3906,281.9375 541.75,282.0781 Q541.1094,282.2344 540.4063,282.2344 Q537.9063,282.2344 536.5781,280.5938 Q535.2656,278.9375 535.2656,275.8125 Q535.2656,272.6875 536.5781,271.0313 Q537.9063,269.375 540.4063,269.375 Q541.1094,269.375 541.75,269.5313 Q542.4063,269.6875 542.9688,269.9844 L542.9688,272.7031 Q542.3438,272.125 541.75,271.8594 Q541.1563,271.5781 540.5313,271.5781 Q539.1875,271.5781 538.5,272.6563 Q537.8125,273.7188 537.8125,275.8125 Q537.8125,277.9063 538.5,278.9844 Q539.1875,280.0469 540.5313,280.0469 Q541.1563,280.0469 541.75,279.7813 Q542.3438,279.5 542.9688,278.9219 L542.9688,281.6406 Z " fill="#000000"/><text fill="#000000" font-family="sans-serif" font-size="14" lengthAdjust="spacing" textLength="141.9619" x="554" y="280.8467">ApiResponseService</text></g><!--class User__class--><g class="entity" data-entity="User__class" data-source-line="23" data-uid="ent0009" id="entity_User__class"><rect fill="#F1F1F1" height="40.2656" rx="2.5" ry="2.5" style="stroke:#181818;stroke-width:0.5;" width="92.4824" x="80" y="354"/><ellipse cx="95" cy="374.1328" fill="#ADD1B2" rx="11" ry="11" style="stroke:#181818;stroke-width:1;"/><path d="M97.9688,379.7734 Q97.3906,380.0703 96.75,380.2109 Q96.1094,380.3672 95.4063,380.3672 Q92.9063,380.3672 91.5781,378.7266 Q90.2656,377.0703 90.2656,373.9453 Q90.2656,370.8203 91.5781,369.1641 Q92.9063,367.5078 95.4063,367.5078 Q96.1094,367.5078 96.75,367.6641 Q97.4063,367.8203 97.9688,368.1172 L97.9688,370.8359 Q97.3438,370.2578 96.75,369.9922 Q96.1563,369.7109 95.5313,369.7109 Q94.1875,369.7109 93.5,370.7891 Q92.8125,371.8516 92.8125,373.9453 Q92.8125,376.0391 93.5,377.1172 Q94.1875,378.1797 95.5313,378.1797 Q96.1563,378.1797 96.75,377.9141 Q97.3438,377.6328 97.9688,377.0547 L97.9688,379.7734 Z " fill="#000000"/><text fill="#000000" font-family="sans-serif" font-size="12" font-style="italic" lengthAdjust="spacing" textLength="64.4824" x="107" y="370.1387">&#171;external&#187;</text><text fill="#000000" font-family="sans-serif" font-size="14" lengthAdjust="spacing" textLength="31.9102" x="123.2861" y="385.9639">User</text></g><!--class Seeder__class--><g class="entity" data-entity="Seeder__class" data-source-line="54" data-uid="ent0040" id="entity_Seeder__class"><rect fill="#F1F1F1" height="40.2656" rx="2.5" ry="2.5" style="stroke:#181818;stroke-width:0.5;" width="92.4824" x="80" y="76"/><ellipse cx="95" cy="96.1328" fill="#ADD1B2" rx="11" ry="11" style="stroke:#181818;stroke-width:1;"/><path d="M97.9688,101.7734 Q97.3906,102.0703 96.75,102.2109 Q96.1094,102.3672 95.4063,102.3672 Q92.9063,102.3672 91.5781,100.7266 Q90.2656,99.0703 90.2656,95.9453 Q90.2656,92.8203 91.5781,91.1641 Q92.9063,89.5078 95.4063,89.5078 Q96.1094,89.5078 96.75,89.6641 Q97.4063,89.8203 97.9688,90.1172 L97.9688,92.8359 Q97.3438,92.2578 96.75,91.9922 Q96.1563,91.7109 95.5313,91.7109 Q94.1875,91.7109 93.5,92.7891 Q92.8125,93.8516 92.8125,95.9453 Q92.8125,98.0391 93.5,99.1172 Q94.1875,100.1797 95.5313,100.1797 Q96.1563,100.1797 96.75,99.9141 Q97.3438,99.6328 97.9688,99.0547 L97.9688,101.7734 Z " fill="#000000"/><text fill="#000000" font-family="sans-serif" font-size="12" font-style="italic" lengthAdjust="spacing" textLength="64.4824" x="107" y="92.1387">&#171;external&#187;</text><text fill="#000000" font-family="sans-serif" font-size="14" lengthAdjust="spacing" textLength="49.3691" x="114.5566" y="107.9639">Seeder</text></g><!--class HasFactory__class--><g class="entity" data-entity="HasFactory__class" data-source-line="27" data-uid="ent0018" id="entity_HasFactory__class"><rect fill="#F1F1F1" height="32" rx="2.5" ry="2.5" style="stroke:#181818;stroke-width:0.5;" width="159.5791" x="46" y="236"/><ellipse cx="61" cy="252" fill="#ADD1B2" rx="11" ry="11" style="stroke:#181818;stroke-width:1;"/><path d="M63.9688,257.6406 Q63.3906,257.9375 62.75,258.0781 Q62.1094,258.2344 61.4063,258.2344 Q58.9063,258.2344 57.5781,256.5938 Q56.2656,254.9375 56.2656,251.8125 Q56.2656,248.6875 57.5781,247.0313 Q58.9063,245.375 61.4063,245.375 Q62.1094,245.375 62.75,245.5313 Q63.4063,245.6875 63.9688,245.9844 L63.9688,248.7031 Q63.3438,248.125 62.75,247.8594 Q62.1563,247.5781 61.5313,247.5781 Q60.1875,247.5781 59.5,248.6563 Q58.8125,249.7188 58.8125,251.8125 Q58.8125,253.9063 59.5,254.9844 Q60.1875,256.0469 61.5313,256.0469 Q62.1563,256.0469 62.75,255.7813 Q63.3438,255.5 63.9688,254.9219 L63.9688,257.6406 Z " fill="#000000"/><text fill="#000000" font-family="sans-serif" font-size="14" lengthAdjust="spacing" textLength="127.5791" x="75" y="256.8467">HasFactory__class</text></g><!--class Factory__class--><g class="entity" data-entity="Factory__class" data-source-line="46" data-uid="ent0035" id="entity_Factory__class"><rect fill="#F1F1F1" height="40.2656" rx="2.5" ry="2.5" style="stroke:#181818;stroke-width:0.5;" width="92.4824" x="80" y="178"/><ellipse cx="95" cy="198.1328" fill="#ADD1B2" rx="11" ry="11" style="stroke:#181818;stroke-width:1;"/><path d="M97.9688,203.7734 Q97.3906,204.0703 96.75,204.2109 Q96.1094,204.3672 95.4063,204.3672 Q92.9063,204.3672 91.5781,202.7266 Q90.2656,201.0703 90.2656,197.9453 Q90.2656,194.8203 91.5781,193.1641 Q92.9063,191.5078 95.4063,191.5078 Q96.1094,191.5078 96.75,191.6641 Q97.4063,191.8203 97.9688,192.1172 L97.9688,194.8359 Q97.3438,194.2578 96.75,193.9922 Q96.1563,193.7109 95.5313,193.7109 Q94.1875,193.7109 93.5,194.7891 Q92.8125,195.8516 92.8125,197.9453 Q92.8125,200.0391 93.5,201.1172 Q94.1875,202.1797 95.5313,202.1797 Q96.1563,202.1797 96.75,201.9141 Q97.3438,201.6328 97.9688,201.0547 L97.9688,203.7734 Z " fill="#000000"/><text fill="#000000" font-family="sans-serif" font-size="12" font-style="italic" lengthAdjust="spacing" textLength="64.4824" x="107" y="194.1387">&#171;external&#187;</text><text fill="#000000" font-family="sans-serif" font-size="14" lengthAdjust="spacing" textLength="52.4248" x="113.0288" y="209.9639">Factory</text></g><!--class Notifiable__class--><g class="entity" data-entity="Notifiable__class" data-source-line="28" data-uid="ent0023" id="entity_Notifiable__class"><rect fill="#F1F1F1" height="32" rx="2.5" ry="2.5" style="stroke:#181818;stroke-width:0.5;" width="147.958" x="52" y="445"/><ellipse cx="67" cy="461" fill="#ADD1B2" rx="11" ry="11" style="stroke:#181818;stroke-width:1;"/><path d="M69.9688,466.6406 Q69.3906,466.9375 68.75,467.0781 Q68.1094,467.2344 67.4063,467.2344 Q64.9063,467.2344 63.5781,465.5938 Q62.2656,463.9375 62.2656,460.8125 Q62.2656,457.6875 63.5781,456.0313 Q64.9063,454.375 67.4063,454.375 Q68.1094,454.375 68.75,454.5313 Q69.4063,454.6875 69.9688,454.9844 L69.9688,457.7031 Q69.3438,457.125 68.75,456.8594 Q68.1563,456.5781 67.5313,456.5781 Q66.1875,456.5781 65.5,457.6563 Q64.8125,458.7188 64.8125,460.8125 Q64.8125,462.9063 65.5,463.9844 Q66.1875,465.0469 67.5313,465.0469 Q68.1563,465.0469 68.75,464.7813 Q69.3438,464.5 69.9688,463.9219 L69.9688,466.6406 Z " fill="#000000"/><text fill="#000000" font-family="sans-serif" font-size="14" lengthAdjust="spacing" textLength="115.958" x="81" y="465.8467">Notifiable__class</text></g><!--class ServiceProvider__class--><g class="entity" data-entity="ServiceProvider__class" data-source-line="34" data-uid="ent0028" id="entity_ServiceProvider__class"><rect fill="#F1F1F1" height="40.2656" rx="2.5" ry="2.5" style="stroke:#181818;stroke-width:0.5;" width="141.9355" x="55" y="520"/><ellipse cx="70" cy="540.1328" fill="#ADD1B2" rx="11" ry="11" style="stroke:#181818;stroke-width:1;"/><path d="M72.9688,545.7734 Q72.3906,546.0703 71.75,546.2109 Q71.1094,546.3672 70.4063,546.3672 Q67.9063,546.3672 66.5781,544.7266 Q65.2656,543.0703 65.2656,539.9453 Q65.2656,536.8203 66.5781,535.1641 Q67.9063,533.5078 70.4063,533.5078 Q71.1094,533.5078 71.75,533.6641 Q72.4063,533.8203 72.9688,534.1172 L72.9688,536.8359 Q72.3438,536.2578 71.75,535.9922 Q71.1563,535.7109 70.5313,535.7109 Q69.1875,535.7109 68.5,536.7891 Q67.8125,537.8516 67.8125,539.9453 Q67.8125,542.0391 68.5,543.1172 Q69.1875,544.1797 70.5313,544.1797 Q71.1563,544.1797 71.75,543.9141 Q72.3438,543.6328 72.9688,543.0547 L72.9688,545.7734 Z " fill="#000000"/><text fill="#000000" font-family="sans-serif" font-size="12" font-style="italic" lengthAdjust="spacing" textLength="64.4824" x="106.7266" y="536.1387">&#171;external&#187;</text><text fill="#000000" font-family="sans-serif" font-size="14" lengthAdjust="spacing" textLength="109.9355" x="84" y="551.9639">ServiceProvider</text></g><!--class HasApiTokens__class--><g class="entity" data-entity="HasApiTokens__class" data-source-line="26" data-uid="ent0012" id="entity_HasApiTokens__class"><rect fill="#F1F1F1" height="32" rx="2.5" ry="2.5" style="stroke:#181818;stroke-width:0.5;" width="179.5127" x="36" y="638"/><ellipse cx="51" cy="654" fill="#ADD1B2" rx="11" ry="11" style="stroke:#181818;stroke-width:1;"/><path d="M53.9688,659.6406 Q53.3906,659.9375 52.75,660.0781 Q52.1094,660.2344 51.4063,660.2344 Q48.9063,660.2344 47.5781,658.5938 Q46.2656,656.9375 46.2656,653.8125 Q46.2656,650.6875 47.5781,649.0313 Q48.9063,647.375 51.4063,647.375 Q52.1094,647.375 52.75,647.5313 Q53.4063,647.6875 53.9688,647.9844 L53.9688,650.7031 Q53.3438,650.125 52.75,649.8594 Q52.1563,649.5781 51.5313,649.5781 Q50.1875,649.5781 49.5,650.6563 Q48.8125,651.7188 48.8125,653.8125 Q48.8125,655.9063 49.5,656.9844 Q50.1875,658.0469 51.5313,658.0469 Q52.1563,658.0469 52.75,657.7813 Q53.3438,657.5 53.9688,656.9219 L53.9688,659.6406 Z " fill="#000000"/><text fill="#000000" font-family="sans-serif" font-size="14" lengthAdjust="spacing" textLength="147.5127" x="65" y="658.8467">HasApiTokens__class</text></g><!--class UserFactory__class--><g class="entity" data-entity="UserFactory__class" data-source-line="50" data-uid="ent0037" id="entity_UserFactory__class"><rect fill="#F1F1F1" height="32" rx="2.5" ry="2.5" style="stroke:#181818;stroke-width:0.5;" width="116.335" x="337.5" y="58"/><ellipse cx="352.5" cy="74" fill="#ADD1B2" rx="11" ry="11" style="stroke:#181818;stroke-width:1;"/><path d="M355.4688,79.6406 Q354.8906,79.9375 354.25,80.0781 Q353.6094,80.2344 352.9063,80.2344 Q350.4063,80.2344 349.0781,78.5938 Q347.7656,76.9375 347.7656,73.8125 Q347.7656,70.6875 349.0781,69.0313 Q350.4063,67.375 352.9063,67.375 Q353.6094,67.375 354.25,67.5313 Q354.9063,67.6875 355.4688,67.9844 L355.4688,70.7031 Q354.8438,70.125 354.25,69.8594 Q353.6563,69.5781 353.0313,69.5781 Q351.6875,69.5781 351,70.6563 Q350.3125,71.7188 350.3125,73.8125 Q350.3125,75.9063 351,76.9844 Q351.6875,78.0469 353.0313,78.0469 Q353.6563,78.0469 354.25,77.7813 Q354.8438,77.5 355.4688,76.9219 L355.4688,79.6406 Z " fill="#000000"/><text fill="#000000" font-family="sans-serif" font-size="14" lengthAdjust="spacing" textLength="84.335" x="366.5" y="78.8467">UserFactory</text></g><!--class DatabaseSeeder__class--><g class="entity" data-entity="DatabaseSeeder__class" data-source-line="58" data-uid="ent0042" id="entity_DatabaseSeeder__class"><rect fill="#F1F1F1" height="32" rx="2.5" ry="2.5" style="stroke:#181818;stroke-width:0.5;" width="148.1699" x="321.5" y="133"/><ellipse cx="336.5" cy="149" fill="#ADD1B2" rx="11" ry="11" style="stroke:#181818;stroke-width:1;"/><path d="M339.4688,154.6406 Q338.8906,154.9375 338.25,155.0781 Q337.6094,155.2344 336.9063,155.2344 Q334.4063,155.2344 333.0781,153.5938 Q331.7656,151.9375 331.7656,148.8125 Q331.7656,145.6875 333.0781,144.0313 Q334.4063,142.375 336.9063,142.375 Q337.6094,142.375 338.25,142.5313 Q338.9063,142.6875 339.4688,142.9844 L339.4688,145.7031 Q338.8438,145.125 338.25,144.8594 Q337.6563,144.5781 337.0313,144.5781 Q335.6875,144.5781 335,145.6563 Q334.3125,146.7188 334.3125,148.8125 Q334.3125,150.9063 335,151.9844 Q335.6875,153.0469 337.0313,153.0469 Q337.6563,153.0469 338.25,152.7813 Q338.8438,152.5 339.4688,151.9219 L339.4688,154.6406 Z " fill="#000000"/><text fill="#000000" font-family="sans-serif" font-size="14" lengthAdjust="spacing" textLength="116.1699" x="350.5" y="153.8467">DatabaseSeeder</text></g><g class="link" data-entity-1="HasApiTokens__class" data-entity-2="User__class" data-uid="lnk17" id="link_HasApiTokens__class_User__class"><polygon fill="#516F42" points="154.9966,637.7851,164.7538,636.4445,159.2467,635.1514,160.5399,629.6443,154.9966,637.7851" style="stroke:#516F42;stroke-width:1;"/><path d="M160.0968,634.6246 C184.1498,619.7194 213.608,599.042 238,572 C266.6921,540.1908 252.7981,514.7932 287,489 C309.0192,472.3944 339.9817,465.6036 363.0256,462.844" fill="none" style="stroke:#516F42;stroke-width:1;"/><text fill="#000000" font-family="sans-serif" font-size="13" lengthAdjust="spacing" textLength="29.7832" x="248" y="491.0669">uses</text></g><g class="link" data-entity-1="HasFactory__class" data-entity-2="User__class" data-uid="lnk22" id="link_HasFactory__class_User__class"><polygon fill="#516F42" points="160.5154,268.0582,166.5961,275.8057,164.9338,270.3986,170.3409,268.7363,160.5154,268.0582" style="stroke:#516F42;stroke-width:1;"/><path d="M165.8175,270.8667 C189.5074,283.4157 215.6037,299.7882 238,323 C267.7444,353.8274 255.8085,376.6376 287,406 C308.9811,426.692 340.2471,441.5079 363.3976,450.5112" fill="none" style="stroke:#516F42;stroke-width:1;"/><text fill="#000000" font-family="sans-serif" font-size="13" lengthAdjust="spacing" textLength="29.7832" x="248" y="329.0669">uses</text></g><g class="link" data-entity-1="Notifiable__class" data-entity-2="User__class" data-uid="lnk25" id="link_Notifiable__class_User__class"><polygon fill="#516F42" points="200.0956,461,209.0956,465,205.0956,461,209.0956,457,200.0956,461" style="stroke:#516F42;stroke-width:1;"/><path d="M206.0956,461 C259.6187,461 323.5826,461 363.3236,461" fill="none" style="stroke:#516F42;stroke-width:1;"/><text fill="#000000" font-family="sans-serif" font-size="13" lengthAdjust="spacing" textLength="29.7832" x="248" y="456.0669">uses</text></g><g class="link" data-entity-1="User__class" data-entity-2="User__class" data-uid="lnk26" id="link_User__class_User__class"><polygon fill="none" points="172.0752,388.66,187.337,399.933,191.0484,388.5213,172.0752,388.66" style="stroke:#516F42;stroke-width:1;"/><path d="M189.1927,394.2272 C243.5402,411.9028 316.3218,435.5738 363.4635,450.9059" fill="none" style="stroke:#516F42;stroke-width:1;"/></g><g class="link" data-entity-1="ServiceProvider__class" data-entity-2="AppServiceProvider__class" data-uid="lnk31" id="link_ServiceProvider__class_AppServiceProvider__class"><polygon fill="none" points="197.2825,538.949,215.3702,544.6792,215.1908,532.6806,197.2825,538.949" style="stroke:#516F42;stroke-width:1;"/><path d="M215.2805,538.6799 C250.1096,538.1591 274.4157,537.7957 310.8987,537.2501" fill="none" style="stroke:#516F42;stroke-width:1;"/></g><g class="link" data-entity-1="ApiResponseInterface__interface" data-entity-2="ApiResponseService__class" data-uid="lnk34" id="link_ApiResponseInterface__interface_ApiResponseService__class"><polygon fill="none" points="488.0895,276,506.0895,282,506.0895,270,488.0895,276" style="stroke:#516F42;stroke-width:1;"/><path d="M506.0895,276 C518.2734,276 512.7328,276 524.8206,276" fill="none" style="stroke:#516F42;stroke-width:1;stroke-dasharray:7,7;"/></g><g class="link" data-entity-1="Factory__class" data-entity-2="UserFactory__class" data-uid="lnk39" id="link_Factory__class_UserFactory__class"><polygon fill="none" points="172.1728,195.9325,190.8004,199.5396,189.2391,187.6416,172.1728,195.9325" style="stroke:#516F42;stroke-width:1;"/><path d="M190.0198,193.5906 C211.4646,190.7765 218.7082,187.0034 238,174 C270.097,152.3654 255.3629,124.3017 287,102 C301.7385,91.6105 320.051,85.0751 337.3609,80.9645" fill="none" style="stroke:#516F42;stroke-width:1;"/></g><g class="link" data-entity-1="Seeder__class" data-entity-2="DatabaseSeeder__class" data-uid="lnk43" id="link_Seeder__class_DatabaseSeeder__class"><polygon fill="none" points="172.0752,104.9308,188.5659,114.3147,190.8981,102.5436,172.0752,104.9308" style="stroke:#516F42;stroke-width:1;"/><path d="M189.732,108.4291 C230.5299,116.5125 273.7052,125.0668 321.4445,134.5255" fill="none" style="stroke:#516F42;stroke-width:1;"/></g><!--SRC=[fLDDRzD04BtxLmpXt0C8EA2gKcX1L0A42DnMYYRs95bbFypkEYL2_U-CdNLiRvCu5Jb4tlbwRzxCl2WThZI2mfsj0dXD0Grc0E0tqfJeKCFKEVjmQvLryFBjgtVBDw-7Vio3tCgm-s1TGUwIGCmtAsShKyJWPVCx7dmdKLjJN5oyZRy4mw-ni0_Ih629obEMdNPr7YKDXLr9O5rOssmj2mBIPTY19hqWvpD5om31WfEhTO12Ec9krcIU0XZKv4lCQKPrkS3KXCYoWnccPId4j9Jmj-OAqWHoozenOUCF3hB6qtrhdG1wEEQOpxlCMEenUqnnFeV0_xVM16ULOkun51S-E5OK85VeFKowa0QnUyxd-mWuZdAlLAMbmK12VAgdWRKIt60LrZ4X8lpoiNRzqLQzlWRwmsqOL71pqm48yON5sv8IOeOc3vNcNj2p43_jXem_v5zTGQqcD_dL5gIy4Ftoxw7ovBbQd-OT1boWvw-Folwko0IcpbfO9yatCFlNxdz0ljaWbp9lrF3j4nUAdbSq6US-CkfwLbXeT3M5Xo6lT4P3rD4HpwgovBCOJdP6RYjp-kxibczbpoMnZSqxwRDDIrjbvp6mf-On6M8V_74YxoIrcF2KsU54OqHwkT7SkoUfIqMQzy-tcy3XpT_PQn-RqTdz7aukBdf3DLtwqKbrE6dr_cRs8NhliG6D76bQvL9DqiMbRb_fMMlQyTjdfgst_Xx4q7Iv04byn-OV]--></g></svg>