<svg xmlns="http://www.w3.org/2000/svg" xmlns:xlink="http://www.w3.org/1999/xlink" contentStyleType="text/css" data-diagram-type="CLASS" height="1177px" preserveAspectRatio="none" style="width:727px;height:1177px;background:#FFFFFF;" version="1.1" viewBox="0 0 727 1177" width="727px" zoomAndPan="magnify"><defs/><g><!--cluster App--><g class="cluster" data-entity="App" data-source-line="15" data-uid="ent0004" id="cluster_App"><path d="M289.5,189 L321.3779,189 A3.75,3.75 0 0 1 323.8779,191.5 L330.8779,211.2969 L718,211.2969 A2.5,2.5 0 0 1 720.5,213.7969 L720.5,1048.5 A2.5,2.5 0 0 1 718,1051 L289.5,1051 A2.5,2.5 0 0 1 287,1048.5 L287,191.5 A2.5,2.5 0 0 1 289.5,189" fill="none" style="stroke:#000000;stroke-width:1.5;"/><line style="stroke:#000000;stroke-width:1.5;" x1="287" x2="330.8779" y1="211.2969" y2="211.2969"/><text fill="#000000" font-family="sans-serif" font-size="14" font-weight="bold" lengthAdjust="spacing" textLength="30.8779" x="291" y="203.9951">App</text></g><!--cluster Api--><g class="cluster" data-entity="Api" data-source-line="14" data-uid="ent0002" id="cluster_Api"><path d="M303,216 L329.6553,216 A3.75,3.75 0 0 1 332.1553,218.5 L339.1553,238.2969 L499,238.2969 A2.5,2.5 0 0 1 501.5,240.7969 L501.5,280.5 A2.5,2.5 0 0 1 499,283 L303,283 A2.5,2.5 0 0 1 300.5,280.5 L300.5,218.5 A2.5,2.5 0 0 1 303,216" fill="none" style="stroke:#000000;stroke-width:1.5;"/><line style="stroke:#000000;stroke-width:1.5;" x1="300.5" x2="339.1553" y1="238.2969" y2="238.2969"/><text fill="#000000" font-family="sans-serif" font-size="14" font-weight="bold" lengthAdjust="spacing" textLength="25.6553" x="304.5" y="230.9951">Api</text></g><!--cluster Dtos--><g class="cluster" data-entity="Dtos" data-source-line="19" data-uid="ent0007" id="cluster_Dtos"><path d="M319.5,291 L356.7646,291 A3.75,3.75 0 0 1 359.2646,293.5 L366.2646,313.2969 L482.5,313.2969 A2.5,2.5 0 0 1 485,315.7969 L485,440.5 A2.5,2.5 0 0 1 482.5,443 L319.5,443 A2.5,2.5 0 0 1 317,440.5 L317,293.5 A2.5,2.5 0 0 1 319.5,291" fill="none" style="stroke:#000000;stroke-width:1.5;"/><line style="stroke:#000000;stroke-width:1.5;" x1="317" x2="366.2646" y1="313.2969" y2="313.2969"/><text fill="#000000" font-family="sans-serif" font-size="14" font-weight="bold" lengthAdjust="spacing" textLength="36.2646" x="321" y="305.9951">Dtos</text></g><!--cluster User--><g class="cluster" data-entity="User" data-source-line="18" data-uid="ent0005" id="cluster_User"><path d="M327.5,318 L364.6006,318 A3.75,3.75 0 0 1 367.1006,320.5 L374.1006,340.2969 L474.5,340.2969 A2.5,2.5 0 0 1 477,342.7969 L477,432.5 A2.5,2.5 0 0 1 474.5,435 L327.5,435 A2.5,2.5 0 0 1 325,432.5 L325,320.5 A2.5,2.5 0 0 1 327.5,318" fill="none" style="stroke:#000000;stroke-width:1.5;"/><line style="stroke:#000000;stroke-width:1.5;" x1="325" x2="374.1006" y1="340.2969" y2="340.2969"/><text fill="#000000" font-family="sans-serif" font-size="14" font-weight="bold" lengthAdjust="spacing" textLength="36.1006" x="329" y="332.9951">User</text></g><!--cluster Http--><g class="cluster" data-entity="Http" data-source-line="27" data-uid="ent0011" id="cluster_Http"><path d="M297.5,451 L333.623,451 A3.75,3.75 0 0 1 336.123,453.5 L343.123,473.2969 L706,473.2969 A2.5,2.5 0 0 1 708.5,475.7969 L708.5,890.5 A2.5,2.5 0 0 1 706,893 L297.5,893 A2.5,2.5 0 0 1 295,890.5 L295,453.5 A2.5,2.5 0 0 1 297.5,451" fill="none" style="stroke:#000000;stroke-width:1.5;"/><line style="stroke:#000000;stroke-width:1.5;" x1="295" x2="343.123" y1="473.2969" y2="473.2969"/><text fill="#000000" font-family="sans-serif" font-size="14" font-weight="bold" lengthAdjust="spacing" textLength="35.123" x="299" y="465.9951">Http</text></g><!--cluster Controllers--><g class="cluster" data-entity="Controllers" data-source-line="26" data-uid="ent0009" id="cluster_Controllers"><path d="M345,478 L433.4043,478 A3.75,3.75 0 0 1 435.9043,480.5 L442.9043,500.2969 L698,500.2969 A2.5,2.5 0 0 1 700.5,502.7969 L700.5,577.5 A2.5,2.5 0 0 1 698,580 L345,580 A2.5,2.5 0 0 1 342.5,577.5 L342.5,480.5 A2.5,2.5 0 0 1 345,478" fill="none" style="stroke:#000000;stroke-width:1.5;"/><line style="stroke:#000000;stroke-width:1.5;" x1="342.5" x2="442.9043" y1="500.2969" y2="500.2969"/><text fill="#000000" font-family="sans-serif" font-size="14" font-weight="bold" lengthAdjust="spacing" textLength="87.4043" x="346.5" y="492.9951">Controllers</text></g><!--cluster Api--><g class="cluster" data-entity="Api" data-source-line="30" data-uid="ent0012" id="cluster_Api"><path d="M545,505 L571.6553,505 A3.75,3.75 0 0 1 574.1553,507.5 L581.1553,527.2969 L690,527.2969 A2.5,2.5 0 0 1 692.5,529.7969 L692.5,569.5 A2.5,2.5 0 0 1 690,572 L545,572 A2.5,2.5 0 0 1 542.5,569.5 L542.5,507.5 A2.5,2.5 0 0 1 545,505" fill="none" style="stroke:#000000;stroke-width:1.5;"/><line style="stroke:#000000;stroke-width:1.5;" x1="542.5" x2="581.1553" y1="527.2969" y2="527.2969"/><text fill="#000000" font-family="sans-serif" font-size="14" font-weight="bold" lengthAdjust="spacing" textLength="25.6553" x="546.5" y="519.9951">Api</text></g><!--cluster Requests--><g class="cluster" data-entity="Requests" data-source-line="39" data-uid="ent0021" id="cluster_Requests"><path d="M305.5,588 L379.6172,588 A3.75,3.75 0 0 1 382.1172,590.5 L389.1172,610.2969 L496.5,610.2969 A2.5,2.5 0 0 1 499,612.7969 L499,772.5 A2.5,2.5 0 0 1 496.5,775 L305.5,775 A2.5,2.5 0 0 1 303,772.5 L303,590.5 A2.5,2.5 0 0 1 305.5,588" fill="none" style="stroke:#000000;stroke-width:1.5;"/><line style="stroke:#000000;stroke-width:1.5;" x1="303" x2="389.1172" y1="610.2969" y2="610.2969"/><text fill="#000000" font-family="sans-serif" font-size="14" font-weight="bold" lengthAdjust="spacing" textLength="73.1172" x="307" y="602.9951">Requests</text></g><!--cluster Api--><g class="cluster" data-entity="Api" data-source-line="39" data-uid="ent0022" id="cluster_Api"><path d="M313.5,615 L340.1553,615 A3.75,3.75 0 0 1 342.6553,617.5 L349.6553,637.2969 L488.5,637.2969 A2.5,2.5 0 0 1 491,639.7969 L491,764.5 A2.5,2.5 0 0 1 488.5,767 L313.5,767 A2.5,2.5 0 0 1 311,764.5 L311,617.5 A2.5,2.5 0 0 1 313.5,615" fill="none" style="stroke:#000000;stroke-width:1.5;"/><line style="stroke:#000000;stroke-width:1.5;" x1="311" x2="349.6553" y1="637.2969" y2="637.2969"/><text fill="#000000" font-family="sans-serif" font-size="14" font-weight="bold" lengthAdjust="spacing" textLength="25.6553" x="315" y="629.9951">Api</text></g><!--cluster Auth--><g class="cluster" data-entity="Auth" data-source-line="38" data-uid="ent0019" id="cluster_Auth"><path d="M321.5,642 L359.9609,642 A3.75,3.75 0 0 1 362.4609,644.5 L369.4609,664.2969 L480.5,664.2969 A2.5,2.5 0 0 1 483,666.7969 L483,756.5 A2.5,2.5 0 0 1 480.5,759 L321.5,759 A2.5,2.5 0 0 1 319,756.5 L319,644.5 A2.5,2.5 0 0 1 321.5,642" fill="none" style="stroke:#000000;stroke-width:1.5;"/><line style="stroke:#000000;stroke-width:1.5;" x1="319" x2="369.4609" y1="664.2969" y2="664.2969"/><text fill="#000000" font-family="sans-serif" font-size="14" font-weight="bold" lengthAdjust="spacing" textLength="37.4609" x="323" y="656.9951">Auth</text></g><!--cluster Resources--><g class="cluster" data-entity="Resources" data-source-line="51" data-uid="ent0032" id="cluster_Resources"><path d="M323,783 L405.2246,783 A3.75,3.75 0 0 1 407.7246,785.5 L414.7246,805.2969 L479,805.2969 A2.5,2.5 0 0 1 481.5,807.7969 L481.5,882.5 A2.5,2.5 0 0 1 479,885 L323,885 A2.5,2.5 0 0 1 320.5,882.5 L320.5,785.5 A2.5,2.5 0 0 1 323,783" fill="none" style="stroke:#000000;stroke-width:1.5;"/><line style="stroke:#000000;stroke-width:1.5;" x1="320.5" x2="414.7246" y1="805.2969" y2="805.2969"/><text fill="#000000" font-family="sans-serif" font-size="14" font-weight="bold" lengthAdjust="spacing" textLength="81.2246" x="324.5" y="797.9951">Resources</text></g><!--cluster Api--><g class="cluster" data-entity="Api" data-source-line="50" data-uid="ent0030" id="cluster_Api"><path d="M331,810 L357.6553,810 A3.75,3.75 0 0 1 360.1553,812.5 L367.1553,832.2969 L471,832.2969 A2.5,2.5 0 0 1 473.5,834.7969 L473.5,874.5 A2.5,2.5 0 0 1 471,877 L331,877 A2.5,2.5 0 0 1 328.5,874.5 L328.5,812.5 A2.5,2.5 0 0 1 331,810" fill="none" style="stroke:#000000;stroke-width:1.5;"/><line style="stroke:#000000;stroke-width:1.5;" x1="328.5" x2="367.1553" y1="832.2969" y2="832.2969"/><text fill="#000000" font-family="sans-serif" font-size="14" font-weight="bold" lengthAdjust="spacing" textLength="25.6553" x="332.5" y="824.9951">Api</text></g><!--cluster Models--><g class="cluster" data-entity="Models" data-source-line="58" data-uid="ent0039" id="cluster_Models"><path d="M363.5,901 L420.6982,901 A3.75,3.75 0 0 1 423.1982,903.5 L430.1982,923.2969 L438.5,923.2969 A2.5,2.5 0 0 1 441,925.7969 L441,965.5 A2.5,2.5 0 0 1 438.5,968 L363.5,968 A2.5,2.5 0 0 1 361,965.5 L361,903.5 A2.5,2.5 0 0 1 363.5,901" fill="none" style="stroke:#000000;stroke-width:1.5;"/><line style="stroke:#000000;stroke-width:1.5;" x1="361" x2="430.1982" y1="923.2969" y2="923.2969"/><text fill="#000000" font-family="sans-serif" font-size="14" font-weight="bold" lengthAdjust="spacing" textLength="56.1982" x="365" y="915.9951">Models</text></g><!--cluster Providers--><g class="cluster" data-entity="Providers" data-source-line="69" data-uid="ent0053" id="cluster_Providers"><path d="M311,976 L387.4619,976 A3.75,3.75 0 0 1 389.9619,978.5 L396.9619,998.2969 L491,998.2969 A2.5,2.5 0 0 1 493.5,1000.7969 L493.5,1040.5 A2.5,2.5 0 0 1 491,1043 L311,1043 A2.5,2.5 0 0 1 308.5,1040.5 L308.5,978.5 A2.5,2.5 0 0 1 311,976" fill="none" style="stroke:#000000;stroke-width:1.5;"/><line style="stroke:#000000;stroke-width:1.5;" x1="308.5" x2="396.9619" y1="998.2969" y2="998.2969"/><text fill="#000000" font-family="sans-serif" font-size="14" font-weight="bold" lengthAdjust="spacing" textLength="75.4619" x="312.5" y="990.9951">Providers</text></g><!--cluster Services--><g class="cluster" data-entity="Services" data-source-line="73" data-uid="ent0056" id="cluster_Services"><path d="M525,216 L592.5342,216 A3.75,3.75 0 0 1 595.0342,218.5 L602.0342,238.2969 L710,238.2969 A2.5,2.5 0 0 1 712.5,240.7969 L712.5,330.5 A2.5,2.5 0 0 1 710,333 L525,333 A2.5,2.5 0 0 1 522.5,330.5 L522.5,218.5 A2.5,2.5 0 0 1 525,216" fill="none" style="stroke:#000000;stroke-width:1.5;"/><line style="stroke:#000000;stroke-width:1.5;" x1="522.5" x2="602.0342" y1="238.2969" y2="238.2969"/><text fill="#000000" font-family="sans-serif" font-size="14" font-weight="bold" lengthAdjust="spacing" textLength="66.5342" x="526.5" y="230.9951">Services</text></g><!--cluster Illuminate--><g class="cluster" data-entity="Illuminate" data-source-line="35" data-uid="ent0017" id="cluster_Illuminate"><path d="M16.5,270 L97.2617,270 A3.75,3.75 0 0 1 99.7617,272.5 L106.7617,292.2969 L235.5,292.2969 A2.5,2.5 0 0 1 238,294.7969 L238,1057.5 A2.5,2.5 0 0 1 235.5,1060 L16.5,1060 A2.5,2.5 0 0 1 14,1057.5 L14,272.5 A2.5,2.5 0 0 1 16.5,270" fill="none" style="stroke:#000000;stroke-width:1.5;"/><line style="stroke:#000000;stroke-width:1.5;" x1="14" x2="106.7617" y1="292.2969" y2="292.2969"/><text fill="#000000" font-family="sans-serif" font-size="14" font-weight="bold" lengthAdjust="spacing" textLength="79.7617" x="18" y="284.9951">Illuminate</text></g><!--cluster Foundation--><g class="cluster" data-entity="Foundation" data-source-line="35" data-uid="ent0018" id="cluster_Foundation"><path d="M49.5,548 L140.1602,548 A3.75,3.75 0 0 1 142.6602,550.5 L149.6602,570.2969 L202.5,570.2969 A2.5,2.5 0 0 1 205,572.7969 L205,738.5 A2.5,2.5 0 0 1 202.5,741 L49.5,741 A2.5,2.5 0 0 1 47,738.5 L47,550.5 A2.5,2.5 0 0 1 49.5,548" fill="none" style="stroke:#000000;stroke-width:1.5;"/><line style="stroke:#000000;stroke-width:1.5;" x1="47" x2="149.6602" y1="570.2969" y2="570.2969"/><text fill="#000000" font-family="sans-serif" font-size="14" font-weight="bold" lengthAdjust="spacing" textLength="89.6602" x="51" y="562.9951">Foundation</text></g><!--cluster Http--><g class="cluster" data-entity="Http" data-source-line="34" data-uid="ent0015" id="cluster_Http"><path d="M57.5,575 L93.623,575 A3.75,3.75 0 0 1 96.123,577.5 L103.123,597.2969 L194.5,597.2969 A2.5,2.5 0 0 1 197,599.7969 L197,647.5 A2.5,2.5 0 0 1 194.5,650 L57.5,650 A2.5,2.5 0 0 1 55,647.5 L55,577.5 A2.5,2.5 0 0 1 57.5,575" fill="none" style="stroke:#000000;stroke-width:1.5;"/><line style="stroke:#000000;stroke-width:1.5;" x1="55" x2="103.123" y1="597.2969" y2="597.2969"/><text fill="#000000" font-family="sans-serif" font-size="14" font-weight="bold" lengthAdjust="spacing" textLength="35.123" x="59" y="589.9951">Http</text></g><!--cluster Auth--><g class="cluster" data-entity="Auth" data-source-line="54" data-uid="ent0034" id="cluster_Auth"><path d="M74.5,658 L112.9609,658 A3.75,3.75 0 0 1 115.4609,660.5 L122.4609,680.2969 L177.5,680.2969 A2.5,2.5 0 0 1 180,682.7969 L180,730.5 A2.5,2.5 0 0 1 177.5,733 L74.5,733 A2.5,2.5 0 0 1 72,730.5 L72,660.5 A2.5,2.5 0 0 1 74.5,658" fill="none" style="stroke:#000000;stroke-width:1.5;"/><line style="stroke:#000000;stroke-width:1.5;" x1="72" x2="122.4609" y1="680.2969" y2="680.2969"/><text fill="#000000" font-family="sans-serif" font-size="14" font-weight="bold" lengthAdjust="spacing" textLength="37.4609" x="76" y="672.9951">Auth</text></g><!--cluster Http--><g class="cluster" data-entity="Http" data-source-line="47" data-uid="ent0028" id="cluster_Http"><path d="M41.5,749 L77.623,749 A3.75,3.75 0 0 1 80.123,751.5 L87.123,771.2969 L210.5,771.2969 A2.5,2.5 0 0 1 213,773.7969 L213,891.5 A2.5,2.5 0 0 1 210.5,894 L41.5,894 A2.5,2.5 0 0 1 39,891.5 L39,751.5 A2.5,2.5 0 0 1 41.5,749" fill="none" style="stroke:#000000;stroke-width:1.5;"/><line style="stroke:#000000;stroke-width:1.5;" x1="39" x2="87.123" y1="771.2969" y2="771.2969"/><text fill="#000000" font-family="sans-serif" font-size="14" font-weight="bold" lengthAdjust="spacing" textLength="35.123" x="43" y="763.9951">Http</text></g><!--cluster Resources--><g class="cluster" data-entity="Resources" data-source-line="47" data-uid="ent0029" id="cluster_Resources"><path d="M49.5,776 L131.7246,776 A3.75,3.75 0 0 1 134.2246,778.5 L141.2246,798.2969 L202.5,798.2969 A2.5,2.5 0 0 1 205,800.7969 L205,883.5 A2.5,2.5 0 0 1 202.5,886 L49.5,886 A2.5,2.5 0 0 1 47,883.5 L47,778.5 A2.5,2.5 0 0 1 49.5,776" fill="none" style="stroke:#000000;stroke-width:1.5;"/><line style="stroke:#000000;stroke-width:1.5;" x1="47" x2="141.2246" y1="798.2969" y2="798.2969"/><text fill="#000000" font-family="sans-serif" font-size="14" font-weight="bold" lengthAdjust="spacing" textLength="81.2246" x="51" y="790.9951">Resources</text></g><!--cluster Json--><g class="cluster" data-entity="Json" data-source-line="46" data-uid="ent0026" id="cluster_Json"><path d="M57.5,803 L91.627,803 A3.75,3.75 0 0 1 94.127,805.5 L101.127,825.2969 L194.5,825.2969 A2.5,2.5 0 0 1 197,827.7969 L197,875.5 A2.5,2.5 0 0 1 194.5,878 L57.5,878 A2.5,2.5 0 0 1 55,875.5 L55,805.5 A2.5,2.5 0 0 1 57.5,803" fill="none" style="stroke:#000000;stroke-width:1.5;"/><line style="stroke:#000000;stroke-width:1.5;" x1="55" x2="101.127" y1="825.2969" y2="825.2969"/><text fill="#000000" font-family="sans-serif" font-size="14" font-weight="bold" lengthAdjust="spacing" textLength="33.127" x="59" y="817.9951">Json</text></g><!--cluster Database--><g class="cluster" data-entity="Database" data-source-line="59" data-uid="ent0043" id="cluster_Database"><path d="M24.5,297 L100.0049,297 A3.75,3.75 0 0 1 102.5049,299.5 L109.5049,319.2969 L227.5,319.2969 A2.5,2.5 0 0 1 230,321.7969 L230,537.5 A2.5,2.5 0 0 1 227.5,540 L24.5,540 A2.5,2.5 0 0 1 22,537.5 L22,299.5 A2.5,2.5 0 0 1 24.5,297" fill="none" style="stroke:#000000;stroke-width:1.5;"/><line style="stroke:#000000;stroke-width:1.5;" x1="22" x2="109.5049" y1="319.2969" y2="319.2969"/><text fill="#000000" font-family="sans-serif" font-size="14" font-weight="bold" lengthAdjust="spacing" textLength="74.5049" x="26" y="311.9951">Database</text></g><!--cluster Eloquent--><g class="cluster" data-entity="Eloquent" data-source-line="59" data-uid="ent0044" id="cluster_Eloquent"><path d="M32.5,372 L103.623,372 A3.75,3.75 0 0 1 106.123,374.5 L113.123,394.2969 L219.5,394.2969 A2.5,2.5 0 0 1 222,396.7969 L222,529.5 A2.5,2.5 0 0 1 219.5,532 L32.5,532 A2.5,2.5 0 0 1 30,529.5 L30,374.5 A2.5,2.5 0 0 1 32.5,372" fill="none" style="stroke:#000000;stroke-width:1.5;"/><line style="stroke:#000000;stroke-width:1.5;" x1="30" x2="113.123" y1="394.2969" y2="394.2969"/><text fill="#000000" font-family="sans-serif" font-size="14" font-weight="bold" lengthAdjust="spacing" textLength="70.123" x="34" y="386.9951">Eloquent</text></g><!--cluster Factories--><g class="cluster" data-entity="Factories" data-source-line="59" data-uid="ent0045" id="cluster_Factories"><path d="M40.5,399 L114.6514,399 A3.75,3.75 0 0 1 117.1514,401.5 L124.1514,421.2969 L211.5,421.2969 A2.5,2.5 0 0 1 214,423.7969 L214,521.5 A2.5,2.5 0 0 1 211.5,524 L40.5,524 A2.5,2.5 0 0 1 38,521.5 L38,401.5 A2.5,2.5 0 0 1 40.5,399" fill="none" style="stroke:#000000;stroke-width:1.5;"/><line style="stroke:#000000;stroke-width:1.5;" x1="38" x2="124.1514" y1="421.2969" y2="421.2969"/><text fill="#000000" font-family="sans-serif" font-size="14" font-weight="bold" lengthAdjust="spacing" textLength="73.1514" x="42" y="413.9951">Factories</text></g><!--cluster Notifications--><g class="cluster" data-entity="Notifications" data-source-line="60" data-uid="ent0048" id="cluster_Notifications"><path d="M46.5,902 L148.3711,902 A3.75,3.75 0 0 1 150.8711,904.5 L157.8711,924.2969 L205.5,924.2969 A2.5,2.5 0 0 1 208,926.7969 L208,966.5 A2.5,2.5 0 0 1 205.5,969 L46.5,969 A2.5,2.5 0 0 1 44,966.5 L44,904.5 A2.5,2.5 0 0 1 46.5,902" fill="none" style="stroke:#000000;stroke-width:1.5;"/><line style="stroke:#000000;stroke-width:1.5;" x1="44" x2="157.8711" y1="924.2969" y2="924.2969"/><text fill="#000000" font-family="sans-serif" font-size="14" font-weight="bold" lengthAdjust="spacing" textLength="100.8711" x="48" y="916.9951">Notifications</text></g><!--cluster Support--><g class="cluster" data-entity="Support" data-source-line="65" data-uid="ent0051" id="cluster_Support"><path d="M49.5,977 L113.8076,977 A3.75,3.75 0 0 1 116.3076,979.5 L123.3076,999.2969 L202.5,999.2969 A2.5,2.5 0 0 1 205,1001.7969 L205,1049.5 A2.5,2.5 0 0 1 202.5,1052 L49.5,1052 A2.5,2.5 0 0 1 47,1049.5 L47,979.5 A2.5,2.5 0 0 1 49.5,977" fill="none" style="stroke:#000000;stroke-width:1.5;"/><line style="stroke:#000000;stroke-width:1.5;" x1="47" x2="123.3076" y1="999.2969" y2="999.2969"/><text fill="#000000" font-family="sans-serif" font-size="14" font-weight="bold" lengthAdjust="spacing" textLength="63.3076" x="51" y="991.9951">Support</text></g><!--cluster Laravel--><g class="cluster" data-entity="Laravel" data-source-line="58" data-uid="ent0037" id="cluster_Laravel"><path d="M22.5,1068 L81.6396,1068 A3.75,3.75 0 0 1 84.1396,1070.5 L91.1396,1090.2969 L229.5,1090.2969 A2.5,2.5 0 0 1 232,1092.7969 L232,1167.5 A2.5,2.5 0 0 1 229.5,1170 L22.5,1170 A2.5,2.5 0 0 1 20,1167.5 L20,1070.5 A2.5,2.5 0 0 1 22.5,1068" fill="none" style="stroke:#000000;stroke-width:1.5;"/><line style="stroke:#000000;stroke-width:1.5;" x1="20" x2="91.1396" y1="1090.2969" y2="1090.2969"/><text fill="#000000" font-family="sans-serif" font-size="14" font-weight="bold" lengthAdjust="spacing" textLength="58.1396" x="24" y="1082.9951">Laravel</text></g><!--cluster Sanctum--><g class="cluster" data-entity="Sanctum" data-source-line="58" data-uid="ent0038" id="cluster_Sanctum"><path d="M30.5,1095 L100.543,1095 A3.75,3.75 0 0 1 103.043,1097.5 L110.043,1117.2969 L221.5,1117.2969 A2.5,2.5 0 0 1 224,1119.7969 L224,1159.5 A2.5,2.5 0 0 1 221.5,1162 L30.5,1162 A2.5,2.5 0 0 1 28,1159.5 L28,1097.5 A2.5,2.5 0 0 1 30.5,1095" fill="none" style="stroke:#000000;stroke-width:1.5;"/><line style="stroke:#000000;stroke-width:1.5;" x1="28" x2="110.043" y1="1117.2969" y2="1117.2969"/><text fill="#000000" font-family="sans-serif" font-size="14" font-weight="bold" lengthAdjust="spacing" textLength="69.043" x="32" y="1109.9951">Sanctum</text></g><!--cluster Database--><g class="cluster" data-entity="Database" data-source-line="86" data-uid="ent0063" id="cluster_Database"><path d="M313.5,4 L389.0049,4 A3.75,3.75 0 0 1 391.5049,6.5 L398.5049,26.2969 L488.5,26.2969 A2.5,2.5 0 0 1 491,28.7969 L491,178.5 A2.5,2.5 0 0 1 488.5,181 L313.5,181 A2.5,2.5 0 0 1 311,178.5 L311,6.5 A2.5,2.5 0 0 1 313.5,4" fill="none" style="stroke:#000000;stroke-width:1.5;"/><line style="stroke:#000000;stroke-width:1.5;" x1="311" x2="398.5049" y1="26.2969" y2="26.2969"/><text fill="#000000" font-family="sans-serif" font-size="14" font-weight="bold" lengthAdjust="spacing" textLength="74.5049" x="315" y="18.9951">Database</text></g><!--cluster Factories--><g class="cluster" data-entity="Factories" data-source-line="85" data-uid="ent0061" id="cluster_Factories"><path d="M337.5,31 L411.6514,31 A3.75,3.75 0 0 1 414.1514,33.5 L421.1514,53.2969 L464.5,53.2969 A2.5,2.5 0 0 1 467,55.7969 L467,95.5 A2.5,2.5 0 0 1 464.5,98 L337.5,98 A2.5,2.5 0 0 1 335,95.5 L335,33.5 A2.5,2.5 0 0 1 337.5,31" fill="none" style="stroke:#000000;stroke-width:1.5;"/><line style="stroke:#000000;stroke-width:1.5;" x1="335" x2="421.1514" y1="53.2969" y2="53.2969"/><text fill="#000000" font-family="sans-serif" font-size="14" font-weight="bold" lengthAdjust="spacing" textLength="73.1514" x="339" y="45.9951">Factories</text></g><!--cluster Seeders--><g class="cluster" data-entity="Seeders" data-source-line="93" data-uid="ent0066" id="cluster_Seeders"><path d="M321.5,106 L386.3271,106 A3.75,3.75 0 0 1 388.8271,108.5 L395.8271,128.2969 L480.5,128.2969 A2.5,2.5 0 0 1 483,130.7969 L483,170.5 A2.5,2.5 0 0 1 480.5,173 L321.5,173 A2.5,2.5 0 0 1 319,170.5 L319,108.5 A2.5,2.5 0 0 1 321.5,106" fill="none" style="stroke:#000000;stroke-width:1.5;"/><line style="stroke:#000000;stroke-width:1.5;" x1="319" x2="395.8271" y1="128.2969" y2="128.2969"/><text fill="#000000" font-family="sans-serif" font-size="14" font-weight="bold" lengthAdjust="spacing" textLength="63.8271" x="323" y="120.9951">Seeders</text></g><!--class ApiResponseInterface__interface--><g class="entity" data-entity="ApiResponseInterface__interface" data-source-line="15" data-uid="ent0003" id="entity_ApiResponseInterface__interface"><rect fill="#F1F1F1" height="32" rx="2.5" ry="2.5" style="stroke:#181818;stroke-width:0.5;" width="184.8994" x="308.5" y="243"/><ellipse cx="323.5" cy="259" fill="#B4A7E5" rx="11" ry="11" style="stroke:#181818;stroke-width:1;"/><path d="M319.4219,254.7656 L319.4219,252.6094 L326.8125,252.6094 L326.8125,254.7656 L324.3438,254.7656 L324.3438,262.8438 L326.8125,262.8438 L326.8125,265 L319.4219,265 L319.4219,262.8438 L321.8906,262.8438 L321.8906,254.7656 L319.4219,254.7656 Z " fill="#000000"/><text fill="#000000" font-family="sans-serif" font-size="14" font-style="italic" lengthAdjust="spacing" textLength="152.8994" x="337.5" y="263.8467">ApiResponseInterface</text></g><!--class CreateUserDto__class--><g class="entity" data-entity="CreateUserDto__class" data-source-line="19" data-uid="ent0006" id="entity_CreateUserDto__class"><rect fill="#F1F1F1" height="32" rx="2.5" ry="2.5" style="stroke:#181818;stroke-width:0.5;" width="135.5713" x="333" y="345"/><ellipse cx="348" cy="361" fill="#ADD1B2" rx="11" ry="11" style="stroke:#181818;stroke-width:1;"/><path d="M350.9688,366.6406 Q350.3906,366.9375 349.75,367.0781 Q349.1094,367.2344 348.4063,367.2344 Q345.9063,367.2344 344.5781,365.5938 Q343.2656,363.9375 343.2656,360.8125 Q343.2656,357.6875 344.5781,356.0313 Q345.9063,354.375 348.4063,354.375 Q349.1094,354.375 349.75,354.5313 Q350.4063,354.6875 350.9688,354.9844 L350.9688,357.7031 Q350.3438,357.125 349.75,356.8594 Q349.1563,356.5781 348.5313,356.5781 Q347.1875,356.5781 346.5,357.6563 Q345.8125,358.7188 345.8125,360.8125 Q345.8125,362.9063 346.5,363.9844 Q347.1875,365.0469 348.5313,365.0469 Q349.1563,365.0469 349.75,364.7813 Q350.3438,364.5 350.9688,363.9219 L350.9688,366.6406 Z " fill="#000000"/><text fill="#000000" font-family="sans-serif" font-size="14" lengthAdjust="spacing" textLength="103.5713" x="362" y="365.8467">CreateUserDto</text></g><!--class UserDto__class--><g class="entity" data-entity="UserDto__class" data-source-line="23" data-uid="ent0008" id="entity_UserDto__class"><rect fill="#F1F1F1" height="32" rx="2.5" ry="2.5" style="stroke:#181818;stroke-width:0.5;" width="88.7451" x="356.5" y="395"/><ellipse cx="371.5" cy="411" fill="#ADD1B2" rx="11" ry="11" style="stroke:#181818;stroke-width:1;"/><path d="M374.4688,416.6406 Q373.8906,416.9375 373.25,417.0781 Q372.6094,417.2344 371.9063,417.2344 Q369.4063,417.2344 368.0781,415.5938 Q366.7656,413.9375 366.7656,410.8125 Q366.7656,407.6875 368.0781,406.0313 Q369.4063,404.375 371.9063,404.375 Q372.6094,404.375 373.25,404.5313 Q373.9063,404.6875 374.4688,404.9844 L374.4688,407.7031 Q373.8438,407.125 373.25,406.8594 Q372.6563,406.5781 372.0313,406.5781 Q370.6875,406.5781 370,407.6563 Q369.3125,408.7188 369.3125,410.8125 Q369.3125,412.9063 370,413.9844 Q370.6875,415.0469 372.0313,415.0469 Q372.6563,415.0469 373.25,414.7813 Q373.8438,414.5 374.4688,413.9219 L374.4688,416.6406 Z " fill="#000000"/><text fill="#000000" font-family="sans-serif" font-size="14" lengthAdjust="spacing" textLength="56.7451" x="385.5" y="415.8467">UserDto</text></g><!--class Controller__class--><g class="entity" data-entity="Controller__class" data-source-line="27" data-uid="ent0010" id="entity_Controller__class"><rect fill="#F1F1F1" height="32" rx="2.5" ry="2.5" style="stroke:#181818;stroke-width:0.5;" width="101.1729" x="350.5" y="532"/><ellipse cx="365.5" cy="548" fill="#A9DCDF" rx="11" ry="11" style="stroke:#181818;stroke-width:1;"/><path d="M365.6094,543.3438 L364.4531,548.4219 L366.7813,548.4219 L365.6094,543.3438 Z M364.125,541.1094 L367.1094,541.1094 L370.4688,553.5 L368.0156,553.5 L367.25,550.4375 L363.9688,550.4375 L363.2188,553.5 L360.7813,553.5 L364.125,541.1094 Z " fill="#000000"/><text fill="#000000" font-family="sans-serif" font-size="14" font-style="italic" lengthAdjust="spacing" textLength="69.1729" x="379.5" y="552.8467">Controller</text></g><!--class AuthController__class--><g class="entity" data-entity="AuthController__class" data-source-line="31" data-uid="ent0013" id="entity_AuthController__class"><rect fill="#F1F1F1" height="32" rx="2.5" ry="2.5" style="stroke:#181818;stroke-width:0.5;" width="133.9854" x="550.5" y="532"/><ellipse cx="565.5" cy="548" fill="#ADD1B2" rx="11" ry="11" style="stroke:#181818;stroke-width:1;"/><path d="M568.4688,553.6406 Q567.8906,553.9375 567.25,554.0781 Q566.6094,554.2344 565.9063,554.2344 Q563.4063,554.2344 562.0781,552.5938 Q560.7656,550.9375 560.7656,547.8125 Q560.7656,544.6875 562.0781,543.0313 Q563.4063,541.375 565.9063,541.375 Q566.6094,541.375 567.25,541.5313 Q567.9063,541.6875 568.4688,541.9844 L568.4688,544.7031 Q567.8438,544.125 567.25,543.8594 Q566.6563,543.5781 566.0313,543.5781 Q564.6875,543.5781 564,544.6563 Q563.3125,545.7188 563.3125,547.8125 Q563.3125,549.9063 564,550.9844 Q564.6875,552.0469 566.0313,552.0469 Q566.6563,552.0469 567.25,551.7813 Q567.8438,551.5 568.4688,550.9219 L568.4688,553.6406 Z " fill="#000000"/><text fill="#000000" font-family="sans-serif" font-size="14" lengthAdjust="spacing" textLength="101.9854" x="579.5" y="552.8467">AuthController</text></g><!--class LoginRequest__class--><g class="entity" data-entity="LoginRequest__class" data-source-line="39" data-uid="ent0020" id="entity_LoginRequest__class"><rect fill="#F1F1F1" height="32" rx="2.5" ry="2.5" style="stroke:#181818;stroke-width:0.5;" width="127.5117" x="337" y="719"/><ellipse cx="352" cy="735" fill="#ADD1B2" rx="11" ry="11" style="stroke:#181818;stroke-width:1;"/><path d="M354.9688,740.6406 Q354.3906,740.9375 353.75,741.0781 Q353.1094,741.2344 352.4063,741.2344 Q349.9063,741.2344 348.5781,739.5938 Q347.2656,737.9375 347.2656,734.8125 Q347.2656,731.6875 348.5781,730.0313 Q349.9063,728.375 352.4063,728.375 Q353.1094,728.375 353.75,728.5313 Q354.4063,728.6875 354.9688,728.9844 L354.9688,731.7031 Q354.3438,731.125 353.75,730.8594 Q353.1563,730.5781 352.5313,730.5781 Q351.1875,730.5781 350.5,731.6563 Q349.8125,732.7188 349.8125,734.8125 Q349.8125,736.9063 350.5,737.9844 Q351.1875,739.0469 352.5313,739.0469 Q353.1563,739.0469 353.75,738.7813 Q354.3438,738.5 354.9688,737.9219 L354.9688,740.6406 Z " fill="#000000"/><text fill="#000000" font-family="sans-serif" font-size="14" lengthAdjust="spacing" textLength="95.5117" x="366" y="739.8467">LoginRequest</text></g><!--class RegisterRequest__class--><g class="entity" data-entity="RegisterRequest__class" data-source-line="43" data-uid="ent0024" id="entity_RegisterRequest__class"><rect fill="#F1F1F1" height="32" rx="2.5" ry="2.5" style="stroke:#181818;stroke-width:0.5;" width="147.7666" x="327" y="669"/><ellipse cx="342" cy="685" fill="#ADD1B2" rx="11" ry="11" style="stroke:#181818;stroke-width:1;"/><path d="M344.9688,690.6406 Q344.3906,690.9375 343.75,691.0781 Q343.1094,691.2344 342.4063,691.2344 Q339.9063,691.2344 338.5781,689.5938 Q337.2656,687.9375 337.2656,684.8125 Q337.2656,681.6875 338.5781,680.0313 Q339.9063,678.375 342.4063,678.375 Q343.1094,678.375 343.75,678.5313 Q344.4063,678.6875 344.9688,678.9844 L344.9688,681.7031 Q344.3438,681.125 343.75,680.8594 Q343.1563,680.5781 342.5313,680.5781 Q341.1875,680.5781 340.5,681.6563 Q339.8125,682.7188 339.8125,684.8125 Q339.8125,686.9063 340.5,687.9844 Q341.1875,689.0469 342.5313,689.0469 Q343.1563,689.0469 343.75,688.7813 Q344.3438,688.5 344.9688,687.9219 L344.9688,690.6406 Z " fill="#000000"/><text fill="#000000" font-family="sans-serif" font-size="14" lengthAdjust="spacing" textLength="115.7666" x="356" y="689.8467">RegisterRequest</text></g><!--class UserResource__class--><g class="entity" data-entity="UserResource__class" data-source-line="51" data-uid="ent0031" id="entity_UserResource__class"><rect fill="#F1F1F1" height="32" rx="2.5" ry="2.5" style="stroke:#181818;stroke-width:0.5;" width="129.0498" x="336.5" y="837"/><ellipse cx="351.5" cy="853" fill="#ADD1B2" rx="11" ry="11" style="stroke:#181818;stroke-width:1;"/><path d="M354.4688,858.6406 Q353.8906,858.9375 353.25,859.0781 Q352.6094,859.2344 351.9063,859.2344 Q349.4063,859.2344 348.0781,857.5938 Q346.7656,855.9375 346.7656,852.8125 Q346.7656,849.6875 348.0781,848.0313 Q349.4063,846.375 351.9063,846.375 Q352.6094,846.375 353.25,846.5313 Q353.9063,846.6875 354.4688,846.9844 L354.4688,849.7031 Q353.8438,849.125 353.25,848.8594 Q352.6563,848.5781 352.0313,848.5781 Q350.6875,848.5781 350,849.6563 Q349.3125,850.7188 349.3125,852.8125 Q349.3125,854.9063 350,855.9844 Q350.6875,857.0469 352.0313,857.0469 Q352.6563,857.0469 353.25,856.7813 Q353.8438,856.5 354.4688,855.9219 L354.4688,858.6406 Z " fill="#000000"/><text fill="#000000" font-family="sans-serif" font-size="14" lengthAdjust="spacing" textLength="97.0498" x="365.5" y="857.8467">UserResource</text></g><!--class User__class--><g class="entity" data-entity="User__class" data-source-line="58" data-uid="ent0040" id="entity_User__class"><rect fill="#F1F1F1" height="32" rx="2.5" ry="2.5" style="stroke:#181818;stroke-width:0.5;" width="63.9102" x="369" y="928"/><ellipse cx="384" cy="944" fill="#ADD1B2" rx="11" ry="11" style="stroke:#181818;stroke-width:1;"/><path d="M386.9688,949.6406 Q386.3906,949.9375 385.75,950.0781 Q385.1094,950.2344 384.4063,950.2344 Q381.9063,950.2344 380.5781,948.5938 Q379.2656,946.9375 379.2656,943.8125 Q379.2656,940.6875 380.5781,939.0313 Q381.9063,937.375 384.4063,937.375 Q385.1094,937.375 385.75,937.5313 Q386.4063,937.6875 386.9688,937.9844 L386.9688,940.7031 Q386.3438,940.125 385.75,939.8594 Q385.1563,939.5781 384.5313,939.5781 Q383.1875,939.5781 382.5,940.6563 Q381.8125,941.7188 381.8125,943.8125 Q381.8125,945.9063 382.5,946.9844 Q383.1875,948.0469 384.5313,948.0469 Q385.1563,948.0469 385.75,947.7813 Q386.3438,947.5 386.9688,946.9219 L386.9688,949.6406 Z " fill="#000000"/><text fill="#000000" font-family="sans-serif" font-size="14" lengthAdjust="spacing" textLength="31.9102" x="398" y="948.8467">User</text></g><!--class AppServiceProvider__class--><g class="entity" data-entity="AppServiceProvider__class" data-source-line="70" data-uid="ent0054" id="entity_AppServiceProvider__class"><rect fill="#F1F1F1" height="32" rx="2.5" ry="2.5" style="stroke:#181818;stroke-width:0.5;" width="169.2861" x="316.5" y="1003"/><ellipse cx="331.5" cy="1019" fill="#ADD1B2" rx="11" ry="11" style="stroke:#181818;stroke-width:1;"/><path d="M334.4688,1024.6406 Q333.8906,1024.9375 333.25,1025.0781 Q332.6094,1025.2344 331.9063,1025.2344 Q329.4063,1025.2344 328.0781,1023.5938 Q326.7656,1021.9375 326.7656,1018.8125 Q326.7656,1015.6875 328.0781,1014.0313 Q329.4063,1012.375 331.9063,1012.375 Q332.6094,1012.375 333.25,1012.5313 Q333.9063,1012.6875 334.4688,1012.9844 L334.4688,1015.7031 Q333.8438,1015.125 333.25,1014.8594 Q332.6563,1014.5781 332.0313,1014.5781 Q330.6875,1014.5781 330,1015.6563 Q329.3125,1016.7188 329.3125,1018.8125 Q329.3125,1020.9063 330,1021.9844 Q330.6875,1023.0469 332.0313,1023.0469 Q332.6563,1023.0469 333.25,1022.7813 Q333.8438,1022.5 334.4688,1021.9219 L334.4688,1024.6406 Z " fill="#000000"/><text fill="#000000" font-family="sans-serif" font-size="14" lengthAdjust="spacing" textLength="137.2861" x="345.5" y="1023.8467">AppServiceProvider</text></g><!--class ApiResponseService__class--><g class="entity" data-entity="ApiResponseService__class" data-source-line="74" data-uid="ent0057" id="entity_ApiResponseService__class"><rect fill="#F1F1F1" height="32" rx="2.5" ry="2.5" style="stroke:#181818;stroke-width:0.5;" width="173.9619" x="530.5" y="243"/><ellipse cx="545.5" cy="259" fill="#ADD1B2" rx="11" ry="11" style="stroke:#181818;stroke-width:1;"/><path d="M548.4688,264.6406 Q547.8906,264.9375 547.25,265.0781 Q546.6094,265.2344 545.9063,265.2344 Q543.4063,265.2344 542.0781,263.5938 Q540.7656,261.9375 540.7656,258.8125 Q540.7656,255.6875 542.0781,254.0313 Q543.4063,252.375 545.9063,252.375 Q546.6094,252.375 547.25,252.5313 Q547.9063,252.6875 548.4688,252.9844 L548.4688,255.7031 Q547.8438,255.125 547.25,254.8594 Q546.6563,254.5781 546.0313,254.5781 Q544.6875,254.5781 544,255.6563 Q543.3125,256.7188 543.3125,258.8125 Q543.3125,260.9063 544,261.9844 Q544.6875,263.0469 546.0313,263.0469 Q546.6563,263.0469 547.25,262.7813 Q547.8438,262.5 548.4688,261.9219 L548.4688,264.6406 Z " fill="#000000"/><text fill="#000000" font-family="sans-serif" font-size="14" lengthAdjust="spacing" textLength="141.9619" x="559.5" y="263.8467">ApiResponseService</text></g><!--class UserService__class--><g class="entity" data-entity="UserService__class" data-source-line="78" data-uid="ent0059" id="entity_UserService__class"><rect fill="#F1F1F1" height="32" rx="2.5" ry="2.5" style="stroke:#181818;stroke-width:0.5;" width="115.6514" x="559.5" y="293"/><ellipse cx="574.5" cy="309" fill="#ADD1B2" rx="11" ry="11" style="stroke:#181818;stroke-width:1;"/><path d="M577.4688,314.6406 Q576.8906,314.9375 576.25,315.0781 Q575.6094,315.2344 574.9063,315.2344 Q572.4063,315.2344 571.0781,313.5938 Q569.7656,311.9375 569.7656,308.8125 Q569.7656,305.6875 571.0781,304.0313 Q572.4063,302.375 574.9063,302.375 Q575.6094,302.375 576.25,302.5313 Q576.9063,302.6875 577.4688,302.9844 L577.4688,305.7031 Q576.8438,305.125 576.25,304.8594 Q575.6563,304.5781 575.0313,304.5781 Q573.6875,304.5781 573,305.6563 Q572.3125,306.7188 572.3125,308.8125 Q572.3125,310.9063 573,311.9844 Q573.6875,313.0469 575.0313,313.0469 Q575.6563,313.0469 576.25,312.7813 Q576.8438,312.5 577.4688,311.9219 L577.4688,314.6406 Z " fill="#000000"/><text fill="#000000" font-family="sans-serif" font-size="14" lengthAdjust="spacing" textLength="83.6514" x="588.5" y="313.8467">UserService</text></g><!--class FormRequest__class--><g class="entity" data-entity="FormRequest__class" data-source-line="35" data-uid="ent0016" id="entity_FormRequest__class"><rect fill="#F1F1F1" height="40.2656" rx="2.5" ry="2.5" style="stroke:#181818;stroke-width:0.5;" width="125.5088" x="63" y="602"/><ellipse cx="78" cy="622.1328" fill="#ADD1B2" rx="11" ry="11" style="stroke:#181818;stroke-width:1;"/><path d="M80.9688,627.7734 Q80.3906,628.0703 79.75,628.2109 Q79.1094,628.3672 78.4063,628.3672 Q75.9063,628.3672 74.5781,626.7266 Q73.2656,625.0703 73.2656,621.9453 Q73.2656,618.8203 74.5781,617.1641 Q75.9063,615.5078 78.4063,615.5078 Q79.1094,615.5078 79.75,615.6641 Q80.4063,615.8203 80.9688,616.1172 L80.9688,618.8359 Q80.3438,618.2578 79.75,617.9922 Q79.1563,617.7109 78.5313,617.7109 Q77.1875,617.7109 76.5,618.7891 Q75.8125,619.8516 75.8125,621.9453 Q75.8125,624.0391 76.5,625.1172 Q77.1875,626.1797 78.5313,626.1797 Q79.1563,626.1797 79.75,625.9141 Q80.3438,625.6328 80.9688,625.0547 L80.9688,627.7734 Z " fill="#000000"/><text fill="#000000" font-family="sans-serif" font-size="12" font-style="italic" lengthAdjust="spacing" textLength="64.4824" x="106.5132" y="618.1387">&#171;external&#187;</text><text fill="#000000" font-family="sans-serif" font-size="14" lengthAdjust="spacing" textLength="93.5088" x="92" y="633.9639">FormRequest</text></g><!--class User__class--><g class="entity" data-entity="User__class" data-source-line="55" data-uid="ent0035" id="entity_User__class"><rect fill="#F1F1F1" height="40.2656" rx="2.5" ry="2.5" style="stroke:#181818;stroke-width:0.5;" width="92.4824" x="80" y="685"/><ellipse cx="95" cy="705.1328" fill="#ADD1B2" rx="11" ry="11" style="stroke:#181818;stroke-width:1;"/><path d="M97.9688,710.7734 Q97.3906,711.0703 96.75,711.2109 Q96.1094,711.3672 95.4063,711.3672 Q92.9063,711.3672 91.5781,709.7266 Q90.2656,708.0703 90.2656,704.9453 Q90.2656,701.8203 91.5781,700.1641 Q92.9063,698.5078 95.4063,698.5078 Q96.1094,698.5078 96.75,698.6641 Q97.4063,698.8203 97.9688,699.1172 L97.9688,701.8359 Q97.3438,701.2578 96.75,700.9922 Q96.1563,700.7109 95.5313,700.7109 Q94.1875,700.7109 93.5,701.7891 Q92.8125,702.8516 92.8125,704.9453 Q92.8125,707.0391 93.5,708.1172 Q94.1875,709.1797 95.5313,709.1797 Q96.1563,709.1797 96.75,708.9141 Q97.3438,708.6328 97.9688,708.0547 L97.9688,710.7734 Z " fill="#000000"/><text fill="#000000" font-family="sans-serif" font-size="12" font-style="italic" lengthAdjust="spacing" textLength="64.4824" x="107" y="701.1387">&#171;external&#187;</text><text fill="#000000" font-family="sans-serif" font-size="14" lengthAdjust="spacing" textLength="31.9102" x="123.2861" y="716.9639">User</text></g><!--class JsonResource__class--><g class="entity" data-entity="JsonResource__class" data-source-line="47" data-uid="ent0027" id="entity_JsonResource__class"><rect fill="#F1F1F1" height="40.2656" rx="2.5" ry="2.5" style="stroke:#181818;stroke-width:0.5;" width="126.001" x="63" y="830"/><ellipse cx="78" cy="850.1328" fill="#ADD1B2" rx="11" ry="11" style="stroke:#181818;stroke-width:1;"/><path d="M80.9688,855.7734 Q80.3906,856.0703 79.75,856.2109 Q79.1094,856.3672 78.4063,856.3672 Q75.9063,856.3672 74.5781,854.7266 Q73.2656,853.0703 73.2656,849.9453 Q73.2656,846.8203 74.5781,845.1641 Q75.9063,843.5078 78.4063,843.5078 Q79.1094,843.5078 79.75,843.6641 Q80.4063,843.8203 80.9688,844.1172 L80.9688,846.8359 Q80.3438,846.2578 79.75,845.9922 Q79.1563,845.7109 78.5313,845.7109 Q77.1875,845.7109 76.5,846.7891 Q75.8125,847.8516 75.8125,849.9453 Q75.8125,852.0391 76.5,853.1172 Q77.1875,854.1797 78.5313,854.1797 Q79.1563,854.1797 79.75,853.9141 Q80.3438,853.6328 80.9688,853.0547 L80.9688,855.7734 Z " fill="#000000"/><text fill="#000000" font-family="sans-serif" font-size="12" font-style="italic" lengthAdjust="spacing" textLength="64.4824" x="106.7593" y="846.1387">&#171;external&#187;</text><text fill="#000000" font-family="sans-serif" font-size="14" lengthAdjust="spacing" textLength="94.001" x="92" y="861.9639">JsonResource</text></g><!--class Seeder__class--><g class="entity" data-entity="Seeder__class" data-source-line="90" data-uid="ent0065" id="entity_Seeder__class"><rect fill="#F1F1F1" height="40.2656" rx="2.5" ry="2.5" style="stroke:#181818;stroke-width:0.5;" width="92.4824" x="80" y="324"/><ellipse cx="95" cy="344.1328" fill="#ADD1B2" rx="11" ry="11" style="stroke:#181818;stroke-width:1;"/><path d="M97.9688,349.7734 Q97.3906,350.0703 96.75,350.2109 Q96.1094,350.3672 95.4063,350.3672 Q92.9063,350.3672 91.5781,348.7266 Q90.2656,347.0703 90.2656,343.9453 Q90.2656,340.8203 91.5781,339.1641 Q92.9063,337.5078 95.4063,337.5078 Q96.1094,337.5078 96.75,337.6641 Q97.4063,337.8203 97.9688,338.1172 L97.9688,340.8359 Q97.3438,340.2578 96.75,339.9922 Q96.1563,339.7109 95.5313,339.7109 Q94.1875,339.7109 93.5,340.7891 Q92.8125,341.8516 92.8125,343.9453 Q92.8125,346.0391 93.5,347.1172 Q94.1875,348.1797 95.5313,348.1797 Q96.1563,348.1797 96.75,347.9141 Q97.3438,347.6328 97.9688,347.0547 L97.9688,349.7734 Z " fill="#000000"/><text fill="#000000" font-family="sans-serif" font-size="12" font-style="italic" lengthAdjust="spacing" textLength="64.4824" x="107" y="340.1387">&#171;external&#187;</text><text fill="#000000" font-family="sans-serif" font-size="14" lengthAdjust="spacing" textLength="49.3691" x="114.5566" y="355.9639">Seeder</text></g><!--class HasFactory__class--><g class="entity" data-entity="HasFactory__class" data-source-line="59" data-uid="ent0042" id="entity_HasFactory__class"><rect fill="#F1F1F1" height="32" rx="2.5" ry="2.5" style="stroke:#181818;stroke-width:0.5;" width="159.5791" x="46" y="484"/><ellipse cx="61" cy="500" fill="#ADD1B2" rx="11" ry="11" style="stroke:#181818;stroke-width:1;"/><path d="M63.9688,505.6406 Q63.3906,505.9375 62.75,506.0781 Q62.1094,506.2344 61.4063,506.2344 Q58.9063,506.2344 57.5781,504.5938 Q56.2656,502.9375 56.2656,499.8125 Q56.2656,496.6875 57.5781,495.0313 Q58.9063,493.375 61.4063,493.375 Q62.1094,493.375 62.75,493.5313 Q63.4063,493.6875 63.9688,493.9844 L63.9688,496.7031 Q63.3438,496.125 62.75,495.8594 Q62.1563,495.5781 61.5313,495.5781 Q60.1875,495.5781 59.5,496.6563 Q58.8125,497.7188 58.8125,499.8125 Q58.8125,501.9063 59.5,502.9844 Q60.1875,504.0469 61.5313,504.0469 Q62.1563,504.0469 62.75,503.7813 Q63.3438,503.5 63.9688,502.9219 L63.9688,505.6406 Z " fill="#000000"/><text fill="#000000" font-family="sans-serif" font-size="14" lengthAdjust="spacing" textLength="127.5791" x="75" y="504.8467">HasFactory__class</text></g><!--class Factory__class--><g class="entity" data-entity="Factory__class" data-source-line="82" data-uid="ent0060" id="entity_Factory__class"><rect fill="#F1F1F1" height="40.2656" rx="2.5" ry="2.5" style="stroke:#181818;stroke-width:0.5;" width="92.4824" x="80" y="426"/><ellipse cx="95" cy="446.1328" fill="#ADD1B2" rx="11" ry="11" style="stroke:#181818;stroke-width:1;"/><path d="M97.9688,451.7734 Q97.3906,452.0703 96.75,452.2109 Q96.1094,452.3672 95.4063,452.3672 Q92.9063,452.3672 91.5781,450.7266 Q90.2656,449.0703 90.2656,445.9453 Q90.2656,442.8203 91.5781,441.1641 Q92.9063,439.5078 95.4063,439.5078 Q96.1094,439.5078 96.75,439.6641 Q97.4063,439.8203 97.9688,440.1172 L97.9688,442.8359 Q97.3438,442.2578 96.75,441.9922 Q96.1563,441.7109 95.5313,441.7109 Q94.1875,441.7109 93.5,442.7891 Q92.8125,443.8516 92.8125,445.9453 Q92.8125,448.0391 93.5,449.1172 Q94.1875,450.1797 95.5313,450.1797 Q96.1563,450.1797 96.75,449.9141 Q97.3438,449.6328 97.9688,449.0547 L97.9688,451.7734 Z " fill="#000000"/><text fill="#000000" font-family="sans-serif" font-size="12" font-style="italic" lengthAdjust="spacing" textLength="64.4824" x="107" y="442.1387">&#171;external&#187;</text><text fill="#000000" font-family="sans-serif" font-size="14" lengthAdjust="spacing" textLength="52.4248" x="113.0288" y="457.9639">Factory</text></g><!--class Notifiable__class--><g class="entity" data-entity="Notifiable__class" data-source-line="60" data-uid="ent0047" id="entity_Notifiable__class"><rect fill="#F1F1F1" height="32" rx="2.5" ry="2.5" style="stroke:#181818;stroke-width:0.5;" width="147.958" x="52" y="929"/><ellipse cx="67" cy="945" fill="#ADD1B2" rx="11" ry="11" style="stroke:#181818;stroke-width:1;"/><path d="M69.9688,950.6406 Q69.3906,950.9375 68.75,951.0781 Q68.1094,951.2344 67.4063,951.2344 Q64.9063,951.2344 63.5781,949.5938 Q62.2656,947.9375 62.2656,944.8125 Q62.2656,941.6875 63.5781,940.0313 Q64.9063,938.375 67.4063,938.375 Q68.1094,938.375 68.75,938.5313 Q69.4063,938.6875 69.9688,938.9844 L69.9688,941.7031 Q69.3438,941.125 68.75,940.8594 Q68.1563,940.5781 67.5313,940.5781 Q66.1875,940.5781 65.5,941.6563 Q64.8125,942.7188 64.8125,944.8125 Q64.8125,946.9063 65.5,947.9844 Q66.1875,949.0469 67.5313,949.0469 Q68.1563,949.0469 68.75,948.7813 Q69.3438,948.5 69.9688,947.9219 L69.9688,950.6406 Z " fill="#000000"/><text fill="#000000" font-family="sans-serif" font-size="14" lengthAdjust="spacing" textLength="115.958" x="81" y="949.8467">Notifiable__class</text></g><!--class ServiceProvider__class--><g class="entity" data-entity="ServiceProvider__class" data-source-line="66" data-uid="ent0052" id="entity_ServiceProvider__class"><rect fill="#F1F1F1" height="40.2656" rx="2.5" ry="2.5" style="stroke:#181818;stroke-width:0.5;" width="141.9355" x="55" y="1004"/><ellipse cx="70" cy="1024.1328" fill="#ADD1B2" rx="11" ry="11" style="stroke:#181818;stroke-width:1;"/><path d="M72.9688,1029.7734 Q72.3906,1030.0703 71.75,1030.2109 Q71.1094,1030.3672 70.4063,1030.3672 Q67.9063,1030.3672 66.5781,1028.7266 Q65.2656,1027.0703 65.2656,1023.9453 Q65.2656,1020.8203 66.5781,1019.1641 Q67.9063,1017.5078 70.4063,1017.5078 Q71.1094,1017.5078 71.75,1017.6641 Q72.4063,1017.8203 72.9688,1018.1172 L72.9688,1020.8359 Q72.3438,1020.2578 71.75,1019.9922 Q71.1563,1019.7109 70.5313,1019.7109 Q69.1875,1019.7109 68.5,1020.7891 Q67.8125,1021.8516 67.8125,1023.9453 Q67.8125,1026.0391 68.5,1027.1172 Q69.1875,1028.1797 70.5313,1028.1797 Q71.1563,1028.1797 71.75,1027.9141 Q72.3438,1027.6328 72.9688,1027.0547 L72.9688,1029.7734 Z " fill="#000000"/><text fill="#000000" font-family="sans-serif" font-size="12" font-style="italic" lengthAdjust="spacing" textLength="64.4824" x="106.7266" y="1020.1387">&#171;external&#187;</text><text fill="#000000" font-family="sans-serif" font-size="14" lengthAdjust="spacing" textLength="109.9355" x="84" y="1035.9639">ServiceProvider</text></g><!--class HasApiTokens__class--><g class="entity" data-entity="HasApiTokens__class" data-source-line="58" data-uid="ent0036" id="entity_HasApiTokens__class"><rect fill="#F1F1F1" height="32" rx="2.5" ry="2.5" style="stroke:#181818;stroke-width:0.5;" width="179.5127" x="36" y="1122"/><ellipse cx="51" cy="1138" fill="#ADD1B2" rx="11" ry="11" style="stroke:#181818;stroke-width:1;"/><path d="M53.9688,1143.6406 Q53.3906,1143.9375 52.75,1144.0781 Q52.1094,1144.2344 51.4063,1144.2344 Q48.9063,1144.2344 47.5781,1142.5938 Q46.2656,1140.9375 46.2656,1137.8125 Q46.2656,1134.6875 47.5781,1133.0313 Q48.9063,1131.375 51.4063,1131.375 Q52.1094,1131.375 52.75,1131.5313 Q53.4063,1131.6875 53.9688,1131.9844 L53.9688,1134.7031 Q53.3438,1134.125 52.75,1133.8594 Q52.1563,1133.5781 51.5313,1133.5781 Q50.1875,1133.5781 49.5,1134.6563 Q48.8125,1135.7188 48.8125,1137.8125 Q48.8125,1139.9063 49.5,1140.9844 Q50.1875,1142.0469 51.5313,1142.0469 Q52.1563,1142.0469 52.75,1141.7813 Q53.3438,1141.5 53.9688,1140.9219 L53.9688,1143.6406 Z " fill="#000000"/><text fill="#000000" font-family="sans-serif" font-size="14" lengthAdjust="spacing" textLength="147.5127" x="65" y="1142.8467">HasApiTokens__class</text></g><!--class UserFactory__class--><g class="entity" data-entity="UserFactory__class" data-source-line="86" data-uid="ent0062" id="entity_UserFactory__class"><rect fill="#F1F1F1" height="32" rx="2.5" ry="2.5" style="stroke:#181818;stroke-width:0.5;" width="116.335" x="343" y="58"/><ellipse cx="358" cy="74" fill="#ADD1B2" rx="11" ry="11" style="stroke:#181818;stroke-width:1;"/><path d="M360.9688,79.6406 Q360.3906,79.9375 359.75,80.0781 Q359.1094,80.2344 358.4063,80.2344 Q355.9063,80.2344 354.5781,78.5938 Q353.2656,76.9375 353.2656,73.8125 Q353.2656,70.6875 354.5781,69.0313 Q355.9063,67.375 358.4063,67.375 Q359.1094,67.375 359.75,67.5313 Q360.4063,67.6875 360.9688,67.9844 L360.9688,70.7031 Q360.3438,70.125 359.75,69.8594 Q359.1563,69.5781 358.5313,69.5781 Q357.1875,69.5781 356.5,70.6563 Q355.8125,71.7188 355.8125,73.8125 Q355.8125,75.9063 356.5,76.9844 Q357.1875,78.0469 358.5313,78.0469 Q359.1563,78.0469 359.75,77.7813 Q360.3438,77.5 360.9688,76.9219 L360.9688,79.6406 Z " fill="#000000"/><text fill="#000000" font-family="sans-serif" font-size="14" lengthAdjust="spacing" textLength="84.335" x="372" y="78.8467">UserFactory</text></g><!--class DatabaseSeeder__class--><g class="entity" data-entity="DatabaseSeeder__class" data-source-line="94" data-uid="ent0067" id="entity_DatabaseSeeder__class"><rect fill="#F1F1F1" height="32" rx="2.5" ry="2.5" style="stroke:#181818;stroke-width:0.5;" width="148.1699" x="327" y="133"/><ellipse cx="342" cy="149" fill="#ADD1B2" rx="11" ry="11" style="stroke:#181818;stroke-width:1;"/><path d="M344.9688,154.6406 Q344.3906,154.9375 343.75,155.0781 Q343.1094,155.2344 342.4063,155.2344 Q339.9063,155.2344 338.5781,153.5938 Q337.2656,151.9375 337.2656,148.8125 Q337.2656,145.6875 338.5781,144.0313 Q339.9063,142.375 342.4063,142.375 Q343.1094,142.375 343.75,142.5313 Q344.4063,142.6875 344.9688,142.9844 L344.9688,145.7031 Q344.3438,145.125 343.75,144.8594 Q343.1563,144.5781 342.5313,144.5781 Q341.1875,144.5781 340.5,145.6563 Q339.8125,146.7188 339.8125,148.8125 Q339.8125,150.9063 340.5,151.9844 Q341.1875,153.0469 342.5313,153.0469 Q343.1563,153.0469 343.75,152.7813 Q344.3438,152.5 344.9688,151.9219 L344.9688,154.6406 Z " fill="#000000"/><text fill="#000000" font-family="sans-serif" font-size="14" lengthAdjust="spacing" textLength="116.1699" x="356" y="153.8467">DatabaseSeeder</text></g><g class="link" data-entity-1="Controller__class" data-entity-2="AuthController__class" data-uid="lnk14" id="link_Controller__class_AuthController__class"><polygon fill="none" points="451.7498,548,469.7498,554,469.7498,542,451.7498,548" style="stroke:#516F42;stroke-width:1;"/><path d="M469.7498,548 C499.081,548 518.5586,548 550.3561,548" fill="none" style="stroke:#516F42;stroke-width:1;"/></g><g class="link" data-entity-1="FormRequest__class" data-entity-2="LoginRequest__class" data-uid="lnk23" id="link_FormRequest__class_LoginRequest__class"><polygon fill="none" points="189.0031,633.185,204.6758,643.8793,207.9578,632.3369,189.0031,633.185" style="stroke:#516F42;stroke-width:1;"/><path d="M206.3168,638.1081 C223.0531,642.867 223.2756,644.6384 238,654 C265.9084,671.744 258.547,693.1431 287,710 C302.0392,718.91 319.9072,724.6513 336.9445,728.3486" fill="none" style="stroke:#516F42;stroke-width:1;"/></g><g class="link" data-entity-1="FormRequest__class" data-entity-2="RegisterRequest__class" data-uid="lnk25" id="link_FormRequest__class_RegisterRequest__class"><polygon fill="none" points="189.2895,636.3745,205.4794,646.2683,208.1777,634.5756,189.2895,636.3745" style="stroke:#516F42;stroke-width:1;"/><path d="M206.8286,640.422 C248.8463,650.1184 286.8036,658.8778 330.2943,668.9141" fill="none" style="stroke:#516F42;stroke-width:1;"/></g><g class="link" data-entity-1="JsonResource__class" data-entity-2="UserResource__class" data-uid="lnk33" id="link_JsonResource__class_UserResource__class"><polygon fill="none" points="189.2895,850.6845,207.2225,856.8819,207.3544,844.8827,189.2895,850.6845" style="stroke:#516F42;stroke-width:1;"/><path d="M207.2884,850.8823 C251.1946,851.3648 291.8193,851.8112 336.0832,852.2976" fill="none" style="stroke:#516F42;stroke-width:1;"/></g><g class="link" data-entity-1="HasApiTokens__class" data-entity-2="User__class" data-uid="lnk41" id="link_HasApiTokens__class_User__class"><polygon fill="#516F42" points="155.0317,1121.8166,164.7902,1120.486,159.2845,1119.1872,160.5832,1113.6815,155.0317,1121.8166" style="stroke:#516F42;stroke-width:1;"/><path d="M160.135,1118.6614 C184.2105,1103.7763 213.6787,1083.1057 238,1056 C266.8648,1023.8306 252.4053,997.9086 287,972 C310.7809,954.1901 344.5101,947.6014 368.9214,945.2194" fill="none" style="stroke:#516F42;stroke-width:1;"/><text fill="#000000" font-family="sans-serif" font-size="13" lengthAdjust="spacing" textLength="29.7832" x="248" y="974.0669">uses</text></g><g class="link" data-entity-1="HasFactory__class" data-entity-2="User__class" data-uid="lnk46" id="link_HasFactory__class_User__class"><polygon fill="#516F42" points="168.2469,516.0617,174.6348,523.5579,172.756,518.2222,178.0917,516.3434,168.2469,516.0617" style="stroke:#516F42;stroke-width:1;"/><path d="M173.6578,518.6543 C197.8617,530.2517 221.4449,545.7466 238,571 C301.1739,667.3664 261.4454,713.1173 279,827 C282.6962,850.9787 273.208,861.0395 287,881 C306.4078,909.0879 342.6057,926.0314 368.8135,935.1623" fill="none" style="stroke:#516F42;stroke-width:1;"/><text fill="#000000" font-family="sans-serif" font-size="13" lengthAdjust="spacing" textLength="29.7832" x="248" y="582.0669">uses</text></g><g class="link" data-entity-1="Notifiable__class" data-entity-2="User__class" data-uid="lnk49" id="link_Notifiable__class_User__class"><polygon fill="#516F42" points="200.159,944.732,209.1736,948.699,205.159,944.7137,209.1443,940.6991,200.159,944.732" style="stroke:#516F42;stroke-width:1;"/><path d="M206.1589,944.71 C261.2804,944.5081 328.1088,944.2633 368.8932,944.1139" fill="none" style="stroke:#516F42;stroke-width:1;"/><text fill="#000000" font-family="sans-serif" font-size="13" lengthAdjust="spacing" textLength="29.7832" x="248" y="939.0669">uses</text></g><g class="link" data-entity-1="User__class" data-entity-2="User__class" data-uid="lnk50" id="link_User__class_User__class"><polygon fill="none" points="155.7309,725.1435,166.6327,740.6725,173.7698,731.0257,155.7309,725.1435" style="stroke:#516F42;stroke-width:1;"/><path d="M170.2012,735.8491 C194.0724,753.5099 213.5,770.1114 238,799 C265.4602,831.3791 256.5322,851.4335 287,881 C310.6949,903.9939 344.4368,921.3536 368.8746,931.9678" fill="none" style="stroke:#516F42;stroke-width:1;"/></g><g class="link" data-entity-1="ServiceProvider__class" data-entity-2="AppServiceProvider__class" data-uid="lnk55" id="link_ServiceProvider__class_AppServiceProvider__class"><polygon fill="none" points="197.3043,1022.7124,215.4111,1028.3818,215.1914,1016.3838,197.3043,1022.7124" style="stroke:#516F42;stroke-width:1;"/><path d="M215.3013,1022.3828 C251.6377,1021.7173 278.2346,1021.2301 316.3345,1020.5323" fill="none" style="stroke:#516F42;stroke-width:1;"/></g><g class="link" data-entity-1="ApiResponseInterface__interface" data-entity-2="ApiResponseService__class" data-uid="lnk58" id="link_ApiResponseInterface__interface_ApiResponseService__class"><polygon fill="none" points="493.5895,259,511.5895,265,511.5895,253,493.5895,259" style="stroke:#516F42;stroke-width:1;"/><path d="M511.5895,259 C523.7734,259 518.2328,259 530.3206,259" fill="none" style="stroke:#516F42;stroke-width:1;stroke-dasharray:7,7;"/></g><g class="link" data-entity-1="Factory__class" data-entity-2="UserFactory__class" data-uid="lnk64" id="link_Factory__class_UserFactory__class"><polygon fill="none" points="172.0168,447.6201,190.4071,452.2886,189.5302,440.3207,172.0168,447.6201" style="stroke:#516F42;stroke-width:1;"/><path d="M189.9686,446.3047 C212.8475,444.6283 221.3154,439.7346 238,422 C336.5889,317.2066 189.9917,208.2583 287,102 C301.1722,86.4764 322.4789,78.9447 342.7844,75.4734" fill="none" style="stroke:#516F42;stroke-width:1;"/></g><g class="link" data-entity-1="Seeder__class" data-entity-2="DatabaseSeeder__class" data-uid="lnk68" id="link_Seeder__class_DatabaseSeeder__class"><polygon fill="none" points="148.7761,323.8568,166.1374,316.2027,158.0726,307.3167,148.7761,323.8568" style="stroke:#516F42;stroke-width:1;"/><path d="M162.105,311.7597 C191.9929,284.6339 234.6624,247.7446 287,212 C312.9672,194.2654 344.328,177.0864 367.417,165.1593" fill="none" style="stroke:#516F42;stroke-width:1;"/></g><!--SRC=[jLRTRzCm47_FNt6Cvps0W0SqJUes9eO6GYkyHQhSvDfQitt1TZegjFyTk_bot8oac-X35D_NxtTtlbnV5Pgj9GF1TbHQC18jKom107FFLS4qap3JcXukIP26r-_VV5YzUzlNiypoBRUx2z8vwYc6BBjVQofLNXklzhzXuolE9AbySl36VWg6sR2S7hXQmue9WqdojAhJ2AxGxWe4qdP3oORd22WBkmE9SedQ909N5Yo1vkkDXPnhTDn89GOjA2RH52p3EVfmrb5BqoHfnJ0hYZIT5Hp-UAx0bKMzyeeJ9xnpHgGCtZJI4s06XXIBHUTPXtfC7cESAqicJNyQrBKDP88P0oUN6fb5ht0cUv2UPB6exE0viSEeHyJxRArxNfAoceHmTQvDsT9OxRhVSMzDAkBjyLaeOJCQX5bfDn5ANzGXuM-BAZVWmmo77_0QOdSZH2cvSZr8qsj_hvc_KrN4sg5cTqrQtk6l4etTKmlE3SBPsPwOLap0-Vb8CMhVgXBkuJADwd5BQwv2o50mL8j_9UCb1uJXnHplSCsDIpca6Sd-7zCmIaFOKAapT8o_65Bz3df9Ox0d6WgUsSCMxl0w-o7imOM2iQ8CfbCz3q8SSw-35WOqMtfZLKZJM_TvtQ98qpbJcIsbeygCI_u7tQCohV_fQJERNob7KN-o6lL7A0sQf9_o5RDioOnx-oJ8DLzPHzrzWKXpNm07KvrsBm7vHfQlUBQlXccER2dmkA3HRQWi1_f_KDWfG-1xr4STRV6yB0gtEFkTdQFUyWo_QzgwRLfnYMH7tlh6BKxLAOV03iLZPQZpS2zF-3r9hNOuPDOkyTeYtksrEDXYN1O2fRj_xNwflduZ_mUEfUOR778ApYChTVBKH1ki6fzgUqMZDDh_3YUE7kOJGWJdiRQFZ7uSPMfDud70RWhmgClVyQiyuzGRVG3H5qqlG6JViVaB]--></g></svg>